<?xml version="1.0" encoding="UTF-8" standalone="no"?>
<!-- Created with Inkscape (http://www.inkscape.org/) -->

<svg
   xmlns:osb="http://www.openswatchbook.org/uri/2009/osb"
   xmlns:dc="http://purl.org/dc/elements/1.1/"
   xmlns:cc="http://creativecommons.org/ns#"
   xmlns:rdf="http://www.w3.org/1999/02/22-rdf-syntax-ns#"
   xmlns:svg="http://www.w3.org/2000/svg"
   xmlns="http://www.w3.org/2000/svg"
   xmlns:xlink="http://www.w3.org/1999/xlink"
   xmlns:sodipodi="http://sodipodi.sourceforge.net/DTD/sodipodi-0.dtd"
   xmlns:inkscape="http://www.inkscape.org/namespaces/inkscape"
   width="65mm"
   height="30.200003mm"
   viewBox="0 0 65 30.200003"
   version="1.1"
   id="svg8"
   inkscape:version="0.92.2 (5c3e80d, 2017-08-06)"
   sodipodi:docname="e-Paper-Driver-HAT_entwurf3.svg">
  <defs
     id="defs2">
    <linearGradient
       inkscape:collect="always"
       id="linearGradient6213">
      <stop
         style="stop-color:#656565;stop-opacity:1"
         offset="0"
         id="stop6209" />
      <stop
         style="stop-color:#f8f8f8;stop-opacity:1"
         offset="1"
         id="stop6211" />
    </linearGradient>
    <linearGradient
       id="linearGradient2355"
       osb:paint="solid">
      <stop
         style="stop-color:#666666;stop-opacity:1;"
         offset="0"
         id="stop2353" />
    </linearGradient>
    <linearGradient
       inkscape:collect="always"
       xlink:href="#linearGradient6213"
       id="linearGradient6217"
       gradientUnits="userSpaceOnUse"
       x1="15.961015"
       y1="141.42734"
       x2="16.509497"
       y2="141.42734"
       spreadMethod="reflect"
       gradientTransform="matrix(1.07223,0,0,0.94685769,0.70232223,7.4407873)" />
    <linearGradient
       inkscape:collect="always"
       xlink:href="#linearGradient6213"
       id="linearGradient6289"
       gradientUnits="userSpaceOnUse"
       gradientTransform="matrix(1.07223,0,0,0.94685769,-1.2320244,7.4407884)"
       x1="15.961015"
       y1="141.42734"
       x2="16.509497"
       y2="141.42734"
       spreadMethod="reflect" />
    <linearGradient
       inkscape:collect="always"
       xlink:href="#linearGradient6213"
       id="linearGradient6305"
       gradientUnits="userSpaceOnUse"
       gradientTransform="matrix(1.07223,0,0,0.94685769,2.683068,7.4407884)"
       x1="15.961015"
       y1="141.42734"
       x2="16.509497"
       y2="141.42734"
       spreadMethod="reflect" />
    <linearGradient
       inkscape:collect="always"
       xlink:href="#linearGradient6213"
       id="linearGradient6321"
       gradientUnits="userSpaceOnUse"
       gradientTransform="matrix(1.07223,0,0,0.94685769,4.7349538,7.4407863)"
       x1="15.961015"
       y1="141.42734"
       x2="16.509497"
       y2="141.42734"
       spreadMethod="reflect" />
    <linearGradient
       inkscape:collect="always"
       xlink:href="#linearGradient6213"
       id="linearGradient6337"
       gradientUnits="userSpaceOnUse"
       gradientTransform="matrix(1.07223,0,0,0.94685769,6.6571227,7.4407884)"
       x1="15.961015"
       y1="141.42734"
       x2="16.509497"
       y2="141.42734"
       spreadMethod="reflect" />
    <linearGradient
       inkscape:collect="always"
       xlink:href="#linearGradient6213"
       id="linearGradient6353"
       gradientUnits="userSpaceOnUse"
       gradientTransform="matrix(1.07223,0,0,0.94685769,8.6500463,7.4407906)"
       x1="15.961015"
       y1="141.42734"
       x2="16.509497"
       y2="141.42734"
       spreadMethod="reflect" />
    <linearGradient
       inkscape:collect="always"
       xlink:href="#linearGradient6213"
       id="linearGradient6353-7"
       gradientUnits="userSpaceOnUse"
       gradientTransform="matrix(1.07223,0,0,0.9468577,10.666557,7.4407809)"
       x1="15.961015"
       y1="141.42734"
       x2="16.509497"
       y2="141.42734"
       spreadMethod="reflect" />
    <linearGradient
       inkscape:collect="always"
       xlink:href="#linearGradient6213"
       id="linearGradient6353-4"
       gradientUnits="userSpaceOnUse"
       gradientTransform="matrix(1.07223,0,0,0.9468577,12.687783,7.4407852)"
       x1="15.961015"
       y1="141.42734"
       x2="16.509497"
       y2="141.42734"
       spreadMethod="reflect" />
  </defs>
  <sodipodi:namedview
     id="base"
     pagecolor="#ffffff"
     bordercolor="#666666"
     borderopacity="1.0"
     inkscape:pageopacity="0.0"
     inkscape:pageshadow="2"
     inkscape:zoom="7.9195959"
     inkscape:cx="133.76482"
     inkscape:cy="50.49764"
     inkscape:document-units="mm"
     inkscape:current-layer="layer1"
     showgrid="false"
     inkscape:window-width="1920"
     inkscape:window-height="1177"
     inkscape:window-x="-8"
     inkscape:window-y="224"
     inkscape:window-maximized="1"
     inkscape:snap-grids="true"
     inkscape:snap-to-guides="false"
     inkscape:snap-nodes="false" />
  <metadata
     id="metadata5">
    <rdf:RDF>
      <cc:Work
         rdf:about="">
        <dc:format>image/svg+xml</dc:format>
        <dc:type
           rdf:resource="http://purl.org/dc/dcmitype/StillImage" />
        <dc:title></dc:title>
      </cc:Work>
    </rdf:RDF>
  </metadata>
  <g
     inkscape:label="Ebene 1"
     inkscape:groupmode="layer"
     id="layer1"
     transform="translate(9.1878786,-118.83787)">
    <rect
       style="opacity:1;fill:#ffffff;fill-opacity:1;fill-rule:nonzero;stroke:none;stroke-width:0.26461643;stroke-miterlimit:4;stroke-dasharray:none"
       id="rect11291"
       width="65"
       height="30.200001"
       x="-16.320635"
       y="114.81212"
       ry="3.5862489" />
    <rect
       style="opacity:1;fill:#ffe680;fill-opacity:1;fill-rule:nonzero;stroke:none;stroke-width:0.55769908"
       id="rect840-2"
       width="15.453236"
       height="3.0960736"
       x="15.724651"
       y="139.74327" />
    <path
       style="fill:#1b3a68;fill-opacity:1;stroke-width:0.10451686"
       d="m -5.9594658,148.93008 c -0.2590518,-0.0399 -0.7355745,-0.19647 -1.0589401,-0.34805 l -0.5879363,-0.2756 -0.4896942,-0.5512 -0.4896932,-0.55121 -0.2067354,-0.67838 -0.2067345,-0.67839 0.028353,-12.10652 0.028354,-12.10652 0.2933058,-0.62621 0.2933047,-0.62619 0.3738329,-0.38292 0.3738319,-0.38293 0.6412041,-0.29545 0.6412041,-0.29546 10.7284005,-0.0287 10.7284015,-0.0287 -0.03475,0.73316 -0.03475,0.73314 H 14.703746 14.346 v 1.04367 1.04367 h 0.366335 0.366336 v 0.83494 0.83492 h 1.151341 1.151341 v 0.6262 0.6262 h 6.018371 6.018371 v -0.6262 -0.6262 h 1.087809 1.087809 l 0.06354,-0.16508 c 0.03494,-0.0908 0.06354,-0.46653 0.06354,-0.83493 v -0.66985 h 0.366335 0.366336 v -1.04367 -1.04367 h -0.357747 -0.357746 l -0.03475,-0.73079 -0.03475,-0.7308 10.466733,9.9e-4 10.466733,0.001 0.523337,0.1394 c 0.287835,0.0767 0.711738,0.23637 0.942006,0.3549 0.230268,0.11852 0.569196,0.37225 0.753172,0.56384 0.183975,0.19158 0.466578,0.63012 0.628003,0.97453 l 0.293503,0.6262 v 12.26308 12.26308 l -0.200074,0.57341 -0.200073,0.57343 -0.537737,0.52242 -0.537739,0.52242 -0.779864,0.31311 -0.779866,0.3131 -9.341559,0.0303 -9.34156,0.0303 v -3.54557 -3.54557 l -0.303992,-0.21584 c -0.167195,-0.11871 -0.332046,-0.21584 -0.366335,-0.21584 -0.03429,0 -0.06235,0.28179 -0.06235,0.62619 v 0.6262 h -0.933445 c -0.513395,0 -1.007948,0.0285 -1.099007,0.0634 l -0.165561,0.0634 v -1.52447 -1.52449 h -0.732671 -0.732672 v 1.51332 1.51331 h -0.261668 -0.261669 l -0.0077,-0.75666 c -0.0042,-0.41616 -0.0011,-1.09715 0.0068,-1.5133 l 0.0145,-0.75667 h -0.74634 -0.74634 l 0.0145,0.75667 c 0.008,0.41615 0.01105,1.09714 0.0068,1.5133 l -0.0077,0.75666 H 27.32461 27.010608 v -1.51331 -1.51332 h -0.680203 -0.680337 v 1.51332 1.51331 h -0.314003 -0.314002 v -1.51331 -1.51332 h -0.680337 -0.680338 v 1.51332 1.51331 h -0.314002 -0.314002 v -1.51331 -1.51332 h -0.628003 -0.628005 v 1.51332 1.51331 h -0.366335 -0.366336 v -1.51331 -1.51332 H 20.364368 19.68403 v 1.51332 1.51331 h -0.314002 -0.314002 v -1.51331 -1.51332 h -0.680338 -0.680337 v 1.51332 1.51331 h -0.261669 -0.261668 v -1.51331 -1.51332 h -0.732672 -0.732671 v 1.52449 1.52447 l -0.165562,-0.0634 c -0.09106,-0.0349 -0.585611,-0.0634 -1.099006,-0.0634 h -0.933446 v -0.57402 -0.57401 h -0.08642 c -0.04753,0 -0.188298,0.10813 -0.312812,0.24029 l -0.226391,0.24029 -0.02736,3.46406 -0.02736,3.46408 -9.1583918,-0.0133 -9.1583912,-0.0133 z m 1.8867118,-0.97199 c 0.2586145,-0.15113 0.6204421,-0.42959 0.8040614,-0.61879 0.1836204,-0.18921 0.4369735,-0.57679 0.5630052,-0.86129 l 0.2291487,-0.51728 -0.00439,-0.69736 -0.00439,-0.69736 -0.2247699,-0.5074 c -0.1236236,-0.27909 -0.3754353,-0.66425 -0.5595788,-0.85593 -0.1841435,-0.19168 -0.5703082,-0.47314 -0.8581429,-0.62548 l -0.5233371,-0.27697 -0.8896722,0.004 -0.8896723,0.004 -0.5314458,0.27464 -0.5314468,0.27464 -0.2646237,0.34656 c -0.1455427,0.19059 -0.3754353,0.55788 -0.5108725,0.81619 l -0.2462498,0.46966 0.00569,0.83493 0.00569,0.83494 0.2825284,0.52007 c 0.1553906,0.28605 0.3863913,0.63113 0.5133355,0.76682 0.2342854,0.25045 0.8540276,0.60516 1.3298146,0.76115 l 0.2616675,0.0857 0.7867528,-0.0307 0.7867528,-0.0307 z m -2.0437127,-1.34551 c -0.1151335,-0.0636 -0.3158388,-0.21164 -0.4460117,-0.32922 l -0.2366775,-0.21377 -0.1037091,-0.38404 -0.1037092,-0.38405 0.063915,-0.31864 0.063915,-0.31866 0.2764723,-0.30133 c 0.15206,-0.16573 0.2161431,-0.22299 0.1424068,-0.12725 -0.073739,0.0957 -0.1625469,0.41386 -0.1973579,0.70694 l -0.063296,0.53287 0.1847405,0.29028 c 0.1016066,0.15966 0.3036009,0.41776 0.448876,0.57358 l 0.2641355,0.2833 0.088655,-0.0547 0.088655,-0.0547 v 0.11053 c 0,0.14125 -0.2032672,0.13639 -0.4710028,-0.0113 z m 0.8700474,0.0506 c 0.075556,-0.0302 0.1658325,-0.0265 0.2006125,0.008 0.034783,0.0347 -0.027036,0.0594 -0.137376,0.0549 l -0.2006126,-0.008 z m 58.8426633,1.3792 c 0.201485,-0.10366 0.5371,-0.32225 0.74581,-0.48575 l 0.379475,-0.29728 0.29757,-0.60162 0.29757,-0.60164 -0.0024,-0.78275 -0.0024,-0.78274 -0.277433,-0.53521 c -0.152588,-0.29438 -0.42629,-0.68365 -0.608226,-0.86506 -0.181936,-0.18142 -0.525527,-0.43156 -0.763536,-0.55584 l -0.432741,-0.22601 -0.889672,4.2e-4 -0.889673,4.2e-4 -0.471003,0.22358 -0.471003,0.22359 -0.387337,0.39743 -0.387338,0.39742 -0.224574,0.50742 -0.224573,0.5074 -0.0044,0.69736 -0.0044,0.69736 0.228952,0.51728 0.228953,0.51728 0.387337,0.39683 c 0.336276,0.34451 0.830575,0.64751 1.381677,0.84694 0.08635,0.0313 0.510253,0.0422 0.942006,0.0243 l 0.785005,-0.0326 0.366335,-0.18847 z m -1.153007,-1.41476 0.364669,-0.0855 0.353328,-0.38443 0.353328,-0.38445 -0.04224,-0.66151 -0.04224,-0.66149 -0.152417,-0.19433 c -0.08383,-0.10689 -0.02289,-0.0619 0.135417,0.1001 l 0.287836,0.29444 0.01578,0.28536 c 0.02952,0.5337 -0.03162,0.91105 -0.186554,1.15136 -0.08503,0.1319 -0.305122,0.33132 -0.489087,0.44317 l -0.334482,0.20337 -0.314002,-0.0103 -0.314002,-0.0103 0.364669,-0.0854 z m -8.35731,-0.84489 0.618506,-0.53428 -0.09771,-0.11801 -0.09771,-0.11801 0.36588,-0.79625 0.36588,-0.79624 -0.438007,-0.92581 c -0.240905,-0.50919 -0.510064,-1.10432 -0.598132,-1.32251 l -0.160124,-0.39673 -0.423193,0.0315 -0.423193,0.0315 -0.09545,0.31309 c -0.0525,0.17221 -0.233531,0.6103 -0.402295,0.97354 l -0.306844,0.66044 -0.122635,-0.0408 c -0.06745,-0.0224 -0.143464,-0.10305 -0.168922,-0.17921 l -0.04628,-0.13847 0.11904,0.0734 0.11904,0.0734 -0.123617,-0.27053 -0.123614,-0.27052 -0.08491,0.13341 c -0.0467,0.0734 -0.08563,0.17143 -0.08651,0.21786 l -0.0016,0.0844 0.103468,-0.0638 0.103468,-0.0637 -0.0657,0.1707 -0.0657,0.17073 -0.09998,-0.13921 -0.09997,-0.13921 0.05216,0.15655 c 0.02869,0.086 0.08226,0.23092 0.119045,0.3218 l 0.06688,0.16525 h -0.166022 -0.16601 l 0.05096,-0.13241 0.05096,-0.13242 -0.09797,-0.0329 -0.09797,-0.0329 0.306102,-0.6262 c 0.168355,-0.34442 0.334779,-0.75951 0.36983,-0.92243 l 0.06372,-0.29621 0.152689,0.12635 0.152689,0.12635 v -1.05644 c -10e-7,-0.58104 -0.02709,-1.05644 -0.0602,-1.05644 -0.03312,0 -0.388206,0.34049 -0.789095,0.75666 l -0.728892,0.75665 0.150461,0.0317 0.150462,0.0317 -0.170539,0.43794 c -0.0938,0.24087 -0.274934,0.64929 -0.402527,0.90759 l -0.231988,0.46965 -0.006,-0.15655 c -0.0033,-0.0862 -0.121109,-0.43834 -0.261802,-0.78274 l -0.255805,-0.6262 h -0.44315 -0.443153 l -0.227641,0.73056 -0.227641,0.73056 -0.06655,-0.15655 c -0.0366,-0.0861 -0.153601,-0.41486 -0.259997,-0.73056 l -0.193444,-0.57401 -0.6379,-0.0309 -0.6379,-0.0309 0.209623,0.73861 c 0.212497,0.74875 0.725055,2.21673 0.957099,2.7412 l 0.126985,0.28701 h 0.327951 0.32795 l 0.346599,-0.95846 0.3466,-0.95846 0.09412,0.30616 c 0.05176,0.1684 0.207721,0.55403 0.346573,0.85696 0.138852,0.30293 0.252459,0.59645 0.252459,0.65228 v 0.10152 h 0.319762 0.319762 l 0.240358,-0.54793 c 0.132197,-0.30136 0.274141,-0.68638 0.315434,-0.85557 l 0.07508,-0.30767 0.09587,0.15111 c 0.05273,0.083 0.09587,0.19807 0.09587,0.25548 v 0.10436 l -0.109921,-0.15654 -0.10992,-0.15656 0.07825,0.26093 c 0.04304,0.14349 0.07977,0.34309 0.08162,0.44354 0.0019,0.10046 0.04548,0.18265 0.09695,0.18265 h 0.09359 l -0.06686,-0.28701 -0.06686,-0.28701 0.116313,0.15655 0.116312,0.15655 -0.06397,-0.3131 -0.06397,-0.3131 0.09328,0.13922 0.09328,0.1392 0.06362,-0.16531 c 0.03499,-0.0908 0.03799,-0.24748 0.0067,-0.34794 l -0.05695,-0.18263 0.113824,0.17561 0.113824,0.1756 -0.20852,0.5275 -0.20852,0.52749 0.100009,0.26229 0.100008,0.26229 h 0.405558 0.405557 l 0.297747,-0.70448 c 0.163762,-0.38746 0.375925,-0.83481 0.471475,-0.99412 l 0.173727,-0.28965 0.17969,0.46916 0.179689,0.46915 -0.197031,0.55106 -0.197031,0.55105 -0.176763,-0.0307 -0.176762,-0.0307 v 0.8917 c 0,0.49043 0.02893,0.89169 0.06428,0.89169 0.03536,0 0.342616,-0.24042 0.682793,-0.53428 z M -1.2097359,143.4208 c 0.029592,-0.10045 0.085211,-0.35928 0.1235856,-0.57518 0.038377,-0.21589 0.10559017,-0.41458 0.1493575,-0.44156 l 0.0795797,-0.0491 0.12315934,0.62419 0.12315934,0.62422 h 0.24934772 0.24934772 l 0.05451075,-0.18264 c 0.06487378,-0.21737 0.37826963,-1.58462 0.37826963,-1.65025 0,-0.0252 -0.0933072,-0.0458 -0.20734051,-0.0458 h -0.2073405 l -0.0547803,0.23483 c -0.0301307,0.12916 -0.0923688,0.42269 -0.13832651,0.6523 l -0.0835532,0.41746 -0.14079746,-0.65774 -0.14079746,-0.65773 -0.27237402,0.0316 -0.27237404,0.0316 -0.096043,0.49575 c -0.052824,0.27265 -0.1308298,0.49573 -0.1733462,0.49573 -0.04252,0 -0.1096934,-0.23482 -0.1492806,-0.52183 l -0.071982,-0.52184 H -1.8872677 -2.08678 l -0.0018,0.13047 c -9.944e-4,0.0718 0.079759,0.49444 0.1794362,0.93929 l 0.1812392,0.80885 h 0.2321799 0.2321798 l 0.053812,-0.18264 z m 2.9077559,-0.39668 -0.035562,-0.55871 -0.1407675,-0.11649 -0.1407675,-0.11649 -0.3461492,0.0333 -0.34614823,0.0333 -0.0347032,0.18264 -0.0347032,0.18265 h 0.15595265 c 0.0857696,0 0.17443338,-0.0554 0.1970204,-0.12285 l 0.0410627,-0.12284 0.1246569,0.0769 c 0.068558,0.0423 0.1246569,0.11423 0.1246569,0.15995 0,0.0458 -0.1527519,0.12678 -0.33945002,0.18018 l -0.33945019,0.097 -0.0357415,0.18504 c -0.0196578,0.10177 -0.010353,0.251 0.0206662,0.33161 l 0.0564076,0.14657 0.55428131,-0.006 0.5542814,-0.006 -0.035562,-0.55872 z m -0.79511509,0.27697 -0.0648538,-0.10465 0.22161309,-0.11826 0.2216132,-0.11827 -0.035512,0.18265 c -0.041522,0.21354 -0.2492319,0.30958 -0.34285559,0.15853 z m 2.12118679,-0.34416 c 0.1217566,-0.35557 0.2011596,-0.66664 0.1764521,-0.69128 -0.02471,-0.0247 -0.1131647,-0.0187 -0.1965702,0.0132 l -0.1516457,0.0581 -0.070515,0.32016 c -0.038787,0.17607 -0.1101347,0.32013 -0.1585544,0.32013 -0.048421,0 -0.1197679,-0.14406 -0.1585534,-0.32013 l -0.070514,-0.32016 -0.1516457,-0.0581 c -0.083403,-0.0319 -0.1700526,-0.0397 -0.1925497,-0.0173 -0.022493,0.0225 0.061939,0.33351 0.1876347,0.69128 l 0.2285388,0.65049 h 0.1682775 0.1682785 z m 1.5899417,0.4874 0.1323982,-0.15906 -0.072012,-0.0718 -0.072012,-0.0719 -0.2031544,0.12652 c -0.111734,0.0696 -0.2508942,0.1265 -0.3092416,0.1265 H 3.9839241 v -0.20872 -0.20875 h 0.4088705 0.4088695 l -0.057656,-0.23482 c -0.031708,-0.12916 -0.1037171,-0.29353 -0.160018,-0.36528 L 4.4816242,142.24663 H 4.1828514 3.8840786 l -0.1711498,0.26046 -0.1711488,0.26045 0.06738,0.35815 0.06738,0.35815 0.1275202,0.0516 c 0.070135,0.0284 0.2512795,0.0553 0.4025399,0.0599 l 0.2750187,0.008 0.1323992,-0.15909 z m -0.6301033,-0.8324 v -0.15655 h 0.1458022 c 0.080189,0 0.1729139,0.0704 0.2060507,0.15655 l 0.060251,0.15654 H 4.1899847 3.9839351 Z m 2.1770803,0.86623 c 0.069077,-0.069 0.1256003,-0.23144 0.1256003,-0.36125 v -0.23602 l -0.4186695,-0.11242 c -0.2302679,-0.0619 -0.4186685,-0.15756 -0.4186685,-0.21275 0,-0.13681 0.1709162,-0.12603 0.415329,0.0262 l 0.2031543,0.12649 0.070025,-0.0699 c 0.038517,-0.0385 0.042131,-0.1423 0.00809,-0.23088 L 6.083892,142.24665 H 5.6747505 5.2656125 l -0.1261305,0.15155 -0.1261315,0.15154 0.062278,0.19565 0.062278,0.19565 0.3912084,0.0963 0.3912075,0.0963 v 0.10437 c 0,0.0575 -0.1059755,0.11937 -0.2355014,0.13771 l -0.2355014,0.0334 v -0.16381 -0.16381 h -0.150824 c -0.082954,0 -0.1812083,0.0491 -0.2183455,0.10894 l -0.067519,0.10894 0.1264929,0.15198 0.1264949,0.15198 h 0.3849197 0.3849197 z m 0.8582716,-0.38542 v -0.51066 l 0.1664465,-0.0638 c 0.09155,-0.0351 0.2092973,-0.0373 0.2616685,-0.005 l 0.095224,0.0588 v 0.51567 0.51568 h 0.1619958 0.1619947 l -0.031159,-0.6523 -0.031159,-0.65229 H 7.4117215 7.0191512 l 6.79e-5,-0.28701 6.89e-5,-0.28701 H 6.8622871 6.7052862 v 0.93931 0.9393 H 6.8622871 7.019288 Z m 2.4073493,-0.0604 V 142.497 L 9.3010299,142.37184 9.1754296,142.2466 H 8.7888915 8.4023544 l -0.058963,0.15321 -0.058964,0.1532 0.1046816,0.0646 0.1046806,0.0646 0.1478309,-0.12234 0.147831,-0.12233 0.1092531,0.0674 c 0.1944286,0.11981 0.1167349,0.2314 -0.2301981,0.33062 l -0.3394502,0.097 -0.035742,0.18504 c -0.019658,0.10177 -0.010682,0.25013 0.019937,0.3297 l 0.055669,0.14467 0.528849,-0.012 0.5288511,-0.012 z m -0.837339,0.21683 c 0,-0.0799 0.077393,-0.17499 0.1719824,-0.21119 0.094585,-0.0362 0.1946084,-0.0433 0.2222651,-0.0157 0.027655,0.0276 0.022393,0.12261 -0.011701,0.21119 -0.034084,0.0887 -0.1341074,0.16105 -0.222265,0.16105 H 8.5892923 Z m 1.6746767,-0.12529 v -0.47944 l 0.209335,-0.0547 0.209334,-0.0547 v -0.14438 -0.14438 H 10.263969 9.8452998 v 0.67838 0.67839 h 0.2093352 0.209334 z m 1.63856,0.31836 c 0.03409,-0.0885 0.03047,-0.19248 -0.0081,-0.23088 l -0.07002,-0.0699 -0.208833,0.13006 -0.208831,0.13003 -0.100411,-0.0619 c -0.05522,-0.0341 -0.100405,-0.12956 -0.100405,-0.21228 v -0.15039 h 0.41867 0.418668 v -0.13332 c 0,-0.0734 -0.07332,-0.2377 -0.162935,-0.36529 l -0.162937,-0.23195 h -0.295251 -0.29525 l -0.137965,0.16576 -0.137965,0.16576 0.0102,0.35913 0.0102,0.35912 0.127756,0.1535 0.127757,0.1535 h 0.356804 0.356804 l 0.06198,-0.16105 z m -0.670387,-0.80434 c 0.02399,-0.0717 0.106412,-0.13046 0.183168,-0.13046 0.07675,0 0.159181,0.0588 0.183168,0.13046 l 0.04361,0.13045 h -0.226779 -0.22678 z m 35.048362,-1.93625 0.328277,-0.29248 -0.0059,-0.42882 -0.0059,-0.42883 -0.126855,-0.20254 c -0.06976,-0.1114 -0.218262,-0.25947 -0.32998,-0.32904 l -0.203128,-0.12649 -0.430065,-0.006 -0.430065,-0.006 -0.293316,0.32733 -0.293316,0.32734 v 0.42384 0.42385 l 0.305951,0.30508 0.30595,0.30506 h 0.42507 0.42507 l 0.328277,-0.29247 z m -1.289695,0.007 -0.284384,-0.17586 -0.06411,-0.29101 c -0.08117,-0.36849 0.02577,-0.86565 0.220927,-1.02715 l 0.150273,-0.12436 v 0.74336 0.74333 h 0.114467 c 0.06296,0 0.139099,-0.0939 0.169208,-0.20873 0.03011,-0.11479 0.08154,-0.20873 0.11429,-0.20873 0.03275,0 0.168372,0.10194 0.301381,0.22654 l 0.241834,0.22654 0.06766,-0.0676 0.06766,-0.0676 -0.124665,-0.14978 -0.124665,-0.14978 0.109749,-0.0677 0.109751,-0.0676 v -0.34635 -0.34634 l -0.131254,-0.10862 c -0.07219,-0.0598 -0.295917,-0.12843 -0.49717,-0.15263 l -0.365916,-0.0441 0.449594,-0.0167 0.449593,-0.0167 0.256911,0.25617 0.256911,0.25617 v 0.40798 0.40797 l -0.275941,0.27516 -0.275941,0.27515 -0.325896,-0.003 -0.325896,-0.003 -0.284383,-0.17586 z m 0.336716,-1.0188 v -0.3798 l 0.235502,0.0334 0.235501,0.0334 v 0.3131 0.3131 l -0.235501,0.0334 -0.235502,0.0334 z m -28.574181,-0.4163 v -0.36411 l -0.287834,0.0178 c -0.15831,0.01 -0.346711,0.0619 -0.41867,0.11597 l -0.130834,0.0982 v 0.24814 0.24815 h 0.418669 0.418669 z m -0.628003,-0.001 c 0,-0.0861 0.0471,-0.15654 0.104667,-0.15654 0.05757,0 0.104667,0.0704 0.104667,0.15654 0,0.0861 -0.0471,0.15655 -0.104667,0.15655 -0.05757,0 -0.104667,-0.0704 -0.104667,-0.15655 z m 0.314001,0.006 c 0,-0.0827 0.0471,-0.17942 0.104668,-0.21489 l 0.104668,-0.0646 v 0.21489 0.21489 H 16.54401 c -0.05757,0 -0.104668,-0.0677 -0.104668,-0.15039 z m 12.193745,-0.4222 v -0.31167 l -0.183169,-0.0352 -0.183168,-0.0352 v 0.16093 0.16092 l 0.157001,-0.0602 0.157001,-0.0601 v 0.10275 c 0,0.0566 -0.06045,0.15279 -0.134344,0.21393 l -0.134345,0.11119 -0.138524,-0.0854 -0.138524,-0.0854 0.07477,-0.24785 0.07477,-0.24786 -0.178452,0.17047 -0.178452,0.17046 0.121925,0.22716 0.121925,0.22717 0.280795,-0.0324 0.280796,-0.0324 v -0.31168 z m -9.891063,0.15513 c 0,-0.0575 -0.08243,-0.10587 -0.183168,-0.10768 l -0.183168,-0.003 0.183168,-0.13865 c 0.100742,-0.0762 0.183168,-0.15694 0.183168,-0.17932 0,-0.0753 -0.574307,-0.0384 -0.706505,0.0454 -0.07196,0.0456 -0.130834,0.174 -0.130834,0.28541 v 0.20258 h 0.41867 0.418669 v -0.10437 z M 18.11402,138.8089 c 0,-0.0541 0.0471,-0.12723 0.104667,-0.16271 l 0.104668,-0.0646 v 0.16271 c 0,0.0895 -0.0471,0.16271 -0.104668,0.16271 -0.05757,0 -0.104667,-0.0442 -0.104667,-0.0981 z m 6.576796,0.0611 0.03688,-0.19373 -0.112738,-0.1124 -0.11274,-0.11242 -0.07721,0.077 -0.07721,0.077 0.141213,0.0869 0.141212,0.087 -0.07192,0.11605 c -0.03956,0.0639 -0.168449,0.11603 -0.286426,0.11603 h -0.214504 l 0.06788,-0.26966 0.06788,-0.26967 -0.108862,0.0671 c -0.124169,0.0765 -0.145871,0.40055 -0.03427,0.51182 0.04102,0.0409 0.193695,0.0606 0.339274,0.0435 l 0.26469,-0.0309 z m 5.948468,-0.21584 -0.06261,-0.16271 -0.271871,0.0225 c -0.149528,0.0124 -0.318296,0.0782 -0.375039,0.14638 l -0.103167,0.12396 0.109751,0.0677 0.109749,0.0676 v -0.11668 -0.11668 l 0.09743,0.0601 0.09743,0.0601 0.0668,-0.10777 c 0.03674,-0.0594 0.108588,-0.082 0.159662,-0.0506 l 0.09287,0.0573 -0.06317,0.1793 -0.06317,0.17931 0.133969,-0.12345 0.133972,-0.12344 z m -3.944145,0.0705 c -8.38e-4,-0.10045 -0.04153,-0.24546 -0.09034,-0.32223 l -0.08873,-0.13959 -0.249831,0.0353 -0.249832,0.0353 -0.03312,0.28701 -0.03312,0.287 h 0.373288 0.373288 l -0.0016,-0.18264 z m -0.626403,-0.0672 c 0,-0.16498 0.197661,-0.26359 0.392504,-0.19582 0.07196,0.0251 0.130833,0.11204 0.130833,0.19336 v 0.14786 h -0.261668 -0.261669 z m -5.357248,-0.14161 -0.03312,-0.28701 H 20.36437 20.050368 l -0.03312,0.28701 -0.03312,0.28701 h 0.38024 0.38024 z m -0.582623,-0.0523 0.04361,-0.13045 h 0.19189 0.191889 l 0.04361,0.13045 0.04361,0.13046 h -0.279113 -0.279113 z m 2.464916,0.21395 c 0.06908,-0.069 0.125602,-0.20977 0.125602,-0.31309 v -0.18787 l -0.183169,0.002 -0.183168,0.002 0.144245,0.091 0.144243,0.091 -0.07192,0.11603 c -0.03956,0.0639 -0.168447,0.11604 -0.286425,0.11604 h -0.214505 l 0.06788,-0.26967 0.06788,-0.26966 -0.108863,0.0672 c -0.05987,0.0369 -0.108862,0.17782 -0.108862,0.31315 v 0.24607 l 0.130834,0.0527 c 0.221212,0.0889 0.345366,0.0744 0.476236,-0.0562 z m -5.840437,-0.24003 v -0.26093 l -0.444835,0.0176 -0.444837,0.0176 0.392502,0.041 0.392504,0.041 v 0.14396 0.14394 l -0.392504,0.041 -0.392502,0.041 0.444837,0.0176 0.444835,0.0176 z m -3.872691,-5.16616 v -5.11395 H 4.4025995 -4.0754536 v 5.11395 5.11397 h 8.4780531 8.4780535 z m -16.7467724,3.49629 v -1.40895 h 1.2560085 1.2560084 v 1.40895 1.40894 h -1.2560084 -1.2560085 z m 1.6220561,0.33918 c 0.025009,-0.0716 0.010083,-0.29482 -0.033166,-0.49573 l -0.078641,-0.36529 -0.3887874,-0.0324 -0.3887894,-0.0324 v 0.52813 0.52813 h 0.4219561 0.4219541 z m -0.6800495,-0.13045 v -0.17107 l 0.2355014,0.0334 c 0.1295259,0.0184 0.2355014,0.0804 0.2355014,0.13772 0,0.0575 -0.1059755,0.11938 -0.2355014,0.13772 l -0.2355014,0.0334 z m 0,-0.46965 v -0.10436 h 0.2093342 0.2093353 v 0.10436 0.10437 h -0.2093353 -0.2093342 z m 1.8840121,0.26092 v -1.40895 h 6.8557086 6.8557111 v 1.40895 1.40894 H 5.8156079 -1.0401007 Z m 5.5264341,0.44878 c 0.069077,-0.069 0.1256004,-0.24735 0.1256004,-0.3966 0,-0.14925 -0.056517,-0.32771 -0.1256004,-0.3966 -0.069077,-0.069 -0.2558251,-0.12523 -0.4149875,-0.12523 H 3.7819608 l -0.1083506,0.20187 c -0.059592,0.11103 -0.1083496,0.27204 -0.1083496,0.35783 0,0.0857 0.074019,0.22975 0.1644777,0.31995 l 0.1644767,0.16401 h 0.233259 c 0.128292,0 0.2897786,-0.0564 0.3588594,-0.12523 z m -0.6427984,-0.2345 c -0.079081,-0.20549 0.010393,-0.44315 0.1931687,-0.51308 l 0.1412557,-0.0541 0.1209629,0.14533 c 0.066531,0.0798 0.1048174,0.22978 0.085081,0.33299 l -0.035881,0.18766 -0.22111,0.0316 -0.22111,0.0317 z m 1.317902,0.29064 -0.1308337,-0.0527 v -0.25223 -0.25222 H 5.1427466 5.25489 l -0.1739751,-0.17347 -0.1739761,-0.17348 -0.082335,0.13285 c -0.074318,0.11989 -0.057116,0.34172 0.05503,0.70984 l 0.039745,0.13046 0.1864537,-0.008 0.1864527,-0.008 -0.1308348,-0.0527 z m 0.49717,-0.24398 v -0.3131 h 0.1046676 0.1046666 v 0.3131 0.3131 h 0.1046676 0.1046677 v -0.36528 -0.36528 l -0.1308338,-0.0124 c -0.071962,-0.007 -0.1661599,-0.007 -0.2093353,0 -0.043179,0.007 -0.078501,-0.0582 -0.078501,-0.1442 0,-0.086 -0.047103,-0.15654 -0.1046676,-0.15654 H 5.4492717 v 0.52183 0.52183 H 5.5539384 5.658606 Z m 1.2560084,0.2017 v -0.1114 l -0.2093352,0.0663 -0.2093343,0.0663 v -0.11141 -0.1114 H 6.7576145 7.019282 v -0.0968 c 0,-0.0534 -0.073919,-0.17063 -0.16427,-0.26072 l -0.164269,-0.1638 -0.2020662,0.10784 -0.2020661,0.10783 v 0.23985 c 0,0.13191 0.031399,0.27116 0.069776,0.30942 0.038377,0.0383 0.1796788,0.0697 0.3140019,0.0697 h 0.2442241 z m -0.4186695,-0.41043 c 0,-0.0575 0.044318,-0.10437 0.098489,-0.10437 0.054171,0 0.1276,0.047 0.1631788,0.10437 l 0.064684,0.10436 H 6.6591198 c -0.089753,0 -0.1631779,-0.047 -0.1631779,-0.10436 z m 0.9420056,0.2661 v -0.25573 l 0.1831681,-0.10638 0.1831681,-0.10637 -0.2878357,-0.003 -0.2878347,-0.003 v 0.36528 0.36528 h 0.1046666 0.1046676 z m -11.3040709,-5.32788 v -3.28755 h 1.2560085 1.2560084 v 3.28755 3.28755 h -1.2560084 -1.2560085 z m 0.9420066,0.57402 v -0.10437 h 0.2529458 0.2529459 l 0.046723,0.13046 c 0.025698,0.0718 0.078242,0.10155 0.1167648,0.0662 l 0.070035,-0.0643 -0.1865855,-0.50108 c -0.102623,-0.27561 -0.2402656,-0.51893 -0.3058732,-0.54075 l -0.1192856,-0.0397 -0.1685051,0.4931 c -0.092678,0.27122 -0.1685071,0.53172 -0.1685071,0.57889 0,0.0472 0.047103,0.0858 0.1046676,0.0858 0.057566,0 0.1046686,-0.047 0.1046686,-0.10436 z m 0.10627,-0.39138 c 8.796e-4,-0.0431 0.041452,-0.14095 0.090142,-0.21755 l 0.088545,-0.13929 0.057057,0.21755 0.057057,0.21756 h -0.147202 c -0.080957,0 -0.1464812,-0.0353 -0.1455996,-0.0784 z m 1.7777421,-0.18264 v -3.28755 h 6.8557086 6.8557111 v 3.28755 3.28755 H 5.8156079 -1.0401007 Z m 10.9900681,2.61642 v -0.14929 l 0.2355006,-0.0334 0.235502,-0.0334 v -0.36528 -0.36528 l -0.340168,-0.017 -0.3401689,-0.017 v 0.56494 0.56493 h 0.1046667 c 0.057566,0 0.1046676,-0.0673 0.1046676,-0.14929 z m 0.037848,-0.42472 c -0.033136,-0.0861 -0.031988,-0.22998 0.0025,-0.31972 l 0.062788,-0.16316 0.105407,0.065 c 0.05798,0.0358 0.105406,0.1796 0.105406,0.31971 v 0.25476 h -0.107951 c -0.05937,0 -0.135064,-0.0705 -0.1681967,-0.15655 z m -8.8299038,0.15655 c 0,-0.0575 -0.070654,-0.10437 -0.157002,-0.10437 -0.0863486,0 -0.15700089,-0.0252 -0.15700089,-0.0559 0,-0.0308 0.0779224,-0.17443 0.17315249,-0.31935 l 0.1731525,-0.2635 -0.1545699,-0.15413 -0.15456895,-0.15413 -0.1755835,0.0673 c -0.0965719,0.037 -0.1755845,0.11415 -0.1755845,0.17156 v 0.10437 l 0.15364942,-0.0589 0.15364941,-0.0589 0.0522045,0.0841 c 0.028713,0.0464 -0.0639752,0.24125 -0.20598272,0.43318 -0.14200449,0.19192 -0.25819025,0.36331 -0.25819025,0.38086 0,0.0176 0.16485108,0.0319 0.36633517,0.0319 H 1.1579074 Z m 0.4186684,0 c 0,-0.0575 -0.047103,-0.10437 -0.1046666,-0.10437 -0.057566,0 -0.1046676,0.047 -0.1046676,0.10437 0,0.0575 0.047103,0.10437 0.1046676,0.10437 0.057566,0 0.1046666,-0.047 0.1046666,-0.10437 z m 0.8369936,-0.15564 0.099138,-0.26002 -0.065643,-0.18355 c -0.036111,-0.10095 -0.1103802,-0.24126 -0.1650556,-0.31181 l -0.099407,-0.12826 -0.2046958,0.10923 -0.2046948,0.10923 0.032517,0.22777 0.032517,0.22776 0.2297148,0.0326 0.2297129,0.0326 -0.058943,0.15317 -0.058944,0.15315 -0.210047,-0.0666 -0.2100471,-0.0666 0.071623,0.11555 c 0.039386,0.0635 0.1642042,0.11555 0.2773659,0.11555 H 2.314433 Z m -0.4183241,-0.47056 v -0.20874 h 0.1046676 0.1046676 v 0.20874 0.20872 H 2.0999201 1.9952525 Z m 0.9420056,0.3131 v -0.41747 H 2.8325875 2.7279198 v 0.41747 0.41747 h 0.1046677 0.1046676 z m 0.4186685,0.10437 v -0.31311 h 0.1570019 0.1570009 v 0.31311 0.3131 H 3.774593 3.8792607 l -0.0016,-0.28701 c -8.377e-4,-0.15786 -0.036211,-0.34015 -0.078502,-0.40509 l -0.076894,-0.11807 -0.2878347,6.2e-4 -0.2878357,6.1e-4 v 0.40443 0.40442 h 0.1046676 0.1046666 v -0.31309 z m 1.3152724,0.19755 0.071623,-0.11555 -0.2224428,0.0705 -0.2224418,0.0704 v -0.27498 -0.27499 l 0.2093343,0.0663 0.2093352,0.0663 v -0.10524 c 0,-0.16457 -0.191134,-0.24175 -0.4196059,-0.16944 l -0.2083988,0.0659 v 0.28868 c 0,0.15877 0.031399,0.31997 0.069776,0.35825 0.1103464,0.11003 0.4341202,0.0809 0.5128224,-0.046 z m 0.487968,-0.20822 c 0.058135,-0.39497 -0.015175,-0.82426 -0.1407646,-0.82426 h -0.092468 v 0.57401 0.57402 h 0.092788 c 0.051037,0 0.114233,-0.14569 0.1404421,-0.32377 z m 0.4795937,-0.0667 -0.032487,-0.3905 -0.2093353,-0.0251 -0.2093342,-0.0251 0.1308338,0.0591 0.1308347,0.0591 v 0.35659 0.35659 H 5.560255 5.6712403 Z m 1.3383785,0.2697 0.074877,-0.12081 -0.2255976,0.0589 -0.2255976,0.0589 -0.058614,-0.0945 -0.058614,-0.0945 h 0.2678444 0.2678454 v -0.13568 c 0,-0.17303 -0.2117163,-0.38616 -0.3835869,-0.38616 -0.072811,0 -0.1787233,0.0863 -0.2353606,0.19185 l -0.1029764,0.19187 0.059163,0.22561 0.059163,0.22561 h 0.2432836 c 0.1338059,0 0.2769785,-0.0544 0.3181611,-0.12081 z m -0.3765254,-0.51155 v -0.11054 l 0.1046676,0.0646 c 0.057566,0.0355 0.1046676,0.0851 0.1046676,0.11052 0,0.0254 -0.047103,0.0461 -0.1046676,0.0461 -0.057566,0 -0.1046676,-0.0498 -0.1046676,-0.11051 z m 1.4653426,0.43088 v -0.20147 l 0.2355014,-0.0334 0.2355024,-0.0334 0.035322,-0.2491 0.035322,-0.24912 -0.1399917,-0.0884 c -0.076994,-0.0487 -0.2459673,-0.0891 -0.3754932,-0.09 l -0.2355014,-0.002 v 0.57401 0.57402 h 0.1046676 0.1046666 z m 0,-0.58127 v -0.15656 h 0.157001 0.1570019 v 0.15656 0.15654 H 8.2229544 8.0659534 Z m 1.4653427,0.53037 c 0,-0.13882 -0.028593,-0.32667 -0.063536,-0.41748 l -0.063536,-0.16508 h -0.244292 c -0.134362,0 -0.2734034,0.047 -0.3089811,0.10437 l -0.064684,0.10436 0.2940116,0.0111 0.2940126,0.0111 -0.2878347,0.1134 -0.2878357,0.11343 v 0.18857 0.1886 h 0.3663361 0.3663352 z m -0.4165689,-0.0111 c 0.072821,-0.0874 0.1539529,-0.13758 0.1802978,-0.11131 0.072581,0.0725 -0.074897,0.27039 -0.2013913,0.27039 H 8.982328 Z m 2.1959118,0.15205 v -0.1114 l -0.209334,0.0662 -0.209334,0.0663 v -0.1114 -0.11139 h 0.261667 c 0.143919,0 0.261669,-0.038 0.261669,-0.0844 0,-0.0465 -0.06247,-0.16961 -0.13881,-0.27372 l -0.138808,-0.18927 -0.227527,0.072 -0.227526,0.072 v 0.28868 c 0,0.15877 0.0314,0.31997 0.06977,0.35825 0.03838,0.0383 0.179678,0.0696 0.314002,0.0696 h 0.244223 z m -0.366335,-0.51481 c 0.03558,-0.0575 0.08546,-0.10436 0.110845,-0.10436 0.02539,0 0.04615,0.047 0.04615,0.10436 0,0.0575 -0.04988,0.10436 -0.110844,0.10436 H 10.87961 Z m 0.889673,0.31311 v -0.31311 h 0.104668 c 0.05757,0 0.104667,-0.047 0.104667,-0.10436 v -0.10437 h -0.209333 -0.209334 v 0.41747 0.41747 h 0.104666 0.104668 z m -4.1866921,-0.10437 v -0.10438 H 7.4379497 7.2286155 v 0.10438 0.10437 h 0.2093342 0.2093352 z m -4.7100298,-0.6262 c 0,-0.0575 -0.047103,-0.10436 -0.1046676,-0.10436 -0.057566,0 -0.1046677,0.047 -0.1046677,0.10436 0,0.0575 0.047103,0.10436 0.1046677,0.10436 0.057566,0 0.1046676,-0.047 0.1046676,-0.10436 z m 7.0127105,-0.7273 v -0.20545 l 0.1402314,0.0537 0.140231,0.0537 0.129471,-0.15556 0.129472,-0.15555 -0.0342,-0.24058 -0.0342,-0.24057 -0.340168,-0.0328 -0.3401677,-0.0327 v 0.58064 0.58063 H 9.845294 9.9499616 Z m 0.018889,-0.54302 c 0.0184,-0.12466 0.092318,-0.24599 0.1642814,-0.26961 l 0.130833,-0.043 v 0.26962 0.26961 h -0.16428 -0.1642808 z m -9.64827959,0.33102 v -0.10437 H 0.04960269 -0.22137062 l 0.27406924,-0.32477 0.27406925,-0.32478 -0.1247717,-0.14991 -0.1247717,-0.14991 -0.21029567,0.0312 c -0.11566162,0.0171 -0.23133222,0.0947 -0.25704312,0.17254 l -0.0467534,0.1414 0.22171896,-0.0702 0.22171797,-0.0703 v 0.1114 c 0,0.0614 -0.09420575,0.20533 -0.20933524,0.32014 -0.11513348,0.11479 -0.20933424,0.27917 -0.20933424,0.36528 v 0.15655 h 0.36633517 0.36633616 z m 0.41866947,0 c 0,-0.0575 -0.0471029,-0.10437 -0.10466762,-0.10437 -0.0575657,0 -0.10466761,0.047 -0.10466761,0.10437 0,0.0575 0.0471029,0.10437 0.10466761,0.10437 0.0575657,0 0.10466762,-0.047 0.10466762,-0.10437 z m 0.62800372,-0.4696 v -0.57402 h -0.09185 c -0.050517,0 -0.1564938,0.0781 -0.2355014,0.17353 l -0.14364979,0.17352 0.13083379,0.044 0.1308347,0.044 v 0.35658 0.35659 h 0.1046667 0.1046676 z m 1.0478313,0.36312 0.1131887,-0.21088 -0.07944,-0.12817 c -0.043698,-0.0706 -0.081197,-0.22218 -0.083343,-0.33704 l -0.00389,-0.20886 H 2.1086442 1.8556994 l -0.047273,0.14141 -0.047273,0.1414 0.2046968,-0.0649 0.2046969,-0.0649 0.013837,0.36692 0.013837,0.36693 H 2.0967427 c -0.055819,0 -0.1014808,-0.0564 -0.1014808,-0.12524 v -0.12524 l -0.1164813,0.11615 -0.1164803,0.11614 0.070325,0.11346 c 0.038677,0.0625 0.1600869,0.11347 0.2697982,0.11347 h 0.1994754 z m 0.522178,-0.20657 v -0.41746 H 2.8325899 2.7279222 v 0.41746 0.41747 h 0.1046677 0.1046676 z m 0.4186685,0.0436 v -0.37399 l 0.1308347,0.0429 0.1308338,0.0429 0.032796,0.33116 0.032796,0.33116 h 0.1043531 0.1043542 l -0.032487,-0.39138 -0.032487,-0.39138 -0.3401691,-0.0328 -0.340169,-0.0327 v 0.42408 0.42409 H 3.2512504 3.355917 Z m 1.1951141,0.31062 c 0.091061,-0.0349 0.1655619,-0.10844 0.1655619,-0.16358 v -0.10023 l -0.2093352,0.0663 -0.2093343,0.0662 v -0.27497 -0.27498 l 0.2355014,0.071 0.2355014,0.071 -0.119716,-0.12589 -0.1197169,-0.12588 -0.1942859,0.037 -0.1942849,0.037 -0.034444,0.24135 c -0.041202,0.28869 0.042251,0.53927 0.1795999,0.53927 0.054671,0 0.1738943,-0.0285 0.2649532,-0.0634 z m 0.6037664,-0.2678 0.032796,-0.33116 0.1308338,-0.0429 0.1308347,-0.0429 v 0.37399 0.37398 h 0.104667 0.1046676 v -0.42964 -0.42963 l -0.2616686,0.0499 -0.2616675,0.0499 v -0.19427 -0.19426 H 5.0306019 4.9259342 v 0.57402 0.57402 h 0.098039 0.098039 z m 1.6983142,0.26803 c 0.090731,-0.0348 0.1416331,-0.10075 0.1131228,-0.14675 l -0.051835,-0.0836 -0.2092314,0.0546 -0.2092294,0.0546 v -0.11655 -0.11654 h 0.269342 0.269344 l -0.034733,-0.18264 -0.034733,-0.18265 -0.2732595,-0.0318 -0.2732596,-0.0317 -0.050398,0.19217 c -0.060721,0.23152 0.081676,0.65401 0.2204341,0.65401 0.05471,0 0.1737106,-0.0284 0.26444,-0.0632 z m -0.3037856,-0.56478 0.065742,-0.10606 0.09744,0.0601 c 0.1451773,0.0895 0.1181076,0.1521 -0.065742,0.1521 H 6.4835988 Z m 1.5166207,0.37425 v -0.25366 l 0.2355014,-0.0334 0.2355024,-0.0334 v -0.26091 -0.26092 l -0.340169,-0.0328 -0.340169,-0.0327 v 0.58064 0.58063 h 0.1046676 0.1046666 z m 0,-0.52039 v -0.16525 h 0.1657237 0.1657236 l -0.041432,0.12392 c -0.022793,0.0683 -0.097361,0.14254 -0.1657237,0.16526 l -0.1242925,0.0414 z m 1.4444709,0.36556 -0.031458,-0.37427 -0.2475736,-0.035 -0.2475727,-0.035 -0.1187635,0.12739 -0.1187616,0.1274 0.2355014,-0.0567 0.2355014,-0.0567 v 0.0823 c 0,0.0454 -0.094206,0.10699 -0.2093342,0.13701 l -0.2093352,0.0547 v 0.21533 0.21532 l 0.3716314,-0.0139 0.3716305,-0.0139 z m -0.450131,0.0953 c 0.035582,-0.0575 0.1090095,-0.10436 0.1631788,-0.10436 0.054171,0 0.098489,0.047 0.098489,0.10436 0,0.0575 -0.07343,0.10437 -0.1631789,0.10437 h -0.163177 z m 2.1443443,0.15656 -0.01239,-0.10437 -0.150138,0.0307 -0.150136,0.0307 v -0.10895 -0.10894 h 0.265351 0.265351 l -0.112033,-0.20873 -0.112033,-0.20873 h -0.201969 -0.20197 l -0.0942,0.18263 c -0.104377,0.20237 -0.04794,0.45399 0.128702,0.57388 0.152244,0.10334 0.391118,0.0537 0.375473,-0.078 z m -0.312666,-0.46965 c 0,-0.0575 0.0471,-0.10437 0.104667,-0.10437 0.05757,0 0.104667,0.047 0.104667,0.10437 0,0.0575 -0.0471,0.10437 -0.104667,0.10437 -0.05757,0 -0.104667,-0.047 -0.104667,-0.10437 z m 0.942006,0.31309 v -0.31309 h 0.104668 c 0.05757,0 0.104667,-0.047 0.104667,-0.10437 v -0.10436 h -0.209336 -0.209334 v 0.41746 0.41747 h 0.104666 0.104668 z m -4.1866927,-0.10435 v -0.10436 H 7.4379521 7.2286179 v 0.10436 0.10436 h 0.2093342 0.2093352 z m -4.7100298,-0.62621 c 0,-0.0575 -0.047103,-0.10436 -0.1046676,-0.10436 -0.057566,0 -0.1046677,0.047 -0.1046677,0.10436 0,0.0575 0.047103,0.10438 0.1046677,0.10438 0.057566,0 0.1046676,-0.047 0.1046676,-0.10438 z m 7.0127105,-0.78274 v -0.15655 h 0.212618 0.212621 l 0.06033,-0.15678 c 0.03318,-0.0862 0.0316,-0.27095 -0.0035,-0.41049 l -0.06386,-0.25368 -0.313766,0.009 -0.3137663,0.009 v 0.55813 0.55814 h 0.1046676 c 0.057566,0 0.1046666,-0.0704 0.1046666,-0.15656 z m 0.069776,-0.33049 c -0.038377,-0.0383 -0.069776,-0.15569 -0.069776,-0.26092 v -0.19134 h 0.157 0.157001 v 0.26092 c 0,0.25338 -0.101917,0.33323 -0.244223,0.19134 z m -9.90850623,-0.40007 c 0,-0.31571 -0.03161823,-0.57402 -0.07025496,-0.57402 -0.10888472,0 -0.45307814,0.33411 -0.45307814,0.4398 v 0.0943 l 0.10466762,-0.0645 0.10466662,-0.0646 v 0.37144 0.37144 h 0.15700093 0.15700093 z m 0.62800472,0.46965 c 0,-0.0575 -0.0471029,-0.10438 -0.10466762,-0.10438 -0.0575657,0 -0.10466762,0.047 -0.10466762,0.10438 0,0.0575 0.0471029,0.10436 0.10466762,0.10436 0.0575657,0 0.10466762,-0.047 0.10466762,-0.10436 z m 0.81712701,-0.17257 0.032127,-0.22474 -0.2385793,-0.16663 -0.2385794,-0.16663 H 1.3439609 1.576584 v -0.10436 -0.10437 H 1.26258 0.94857812 v 0.30333 0.30333 l 0.20933528,-0.0547 0.2093342,-0.0547 v 0.15133 c 0,0.0831 -0.030989,0.18223 -0.068867,0.22 l -0.068867,0.0688 -0.1429938,-0.11834 c -0.1653503,-0.13683 -0.29815085,-0.054 -0.19086552,0.11919 l 0.072701,0.11729 0.27795082,-0.0321 0.2779509,-0.0321 z m 0.8828964,0.14647 c 0.026257,-0.0718 0.026147,-0.30657 -2.097e-4,-0.52182 l -0.048001,-0.39138 h -0.122984 c -0.1299372,0 -0.4821186,0.52636 -0.4821186,0.72057 0,0.063 0.070654,0.11435 0.1570009,0.11435 0.086349,0 0.157001,0.047 0.157001,0.10438 0,0.15046 0.2826931,0.12871 0.3393493,-0.0261 z m 0.4979896,-0.28701 v -0.41746 H 2.8325869 2.7279192 v 0.41746 0.41747 h 0.1046677 0.1046676 z m 0.4186685,0.10437 v -0.3131 h 0.1570019 0.1570009 v 0.3131 0.3131 h 0.1046666 0.1046677 v -0.30032 -0.30033 l -0.1308338,-0.0986 C 3.6764653,129.5956 3.511617,129.5458 3.3820911,129.53921 l -0.2355014,-0.012 v 0.41098 0.41098 H 3.2512573 3.355924 Z m 1.3126457,0.20179 0.068997,-0.11131 -0.077144,-0.0713 -0.077144,-0.0713 -0.046723,0.13046 c -0.025698,0.0717 -0.089903,0.13046 -0.1426714,0.13046 h -0.095943 v -0.26796 -0.26794 l 0.2093343,0.0663 0.2093352,0.0662 v -0.11467 c 0,-0.0632 -0.071253,-0.14194 -0.1583338,-0.17527 l -0.1583347,-0.0607 -0.1556671,0.12883 -0.1556691,0.12881 v 0.23076 c 0,0.1269 0.031399,0.26205 0.069776,0.30031 0.108699,0.10839 0.433622,0.0819 0.5101956,-0.0418 z m 0.4859143,-0.16765 0.033116,-0.27895 0.1308338,-0.0429 0.1308347,-0.0429 v 0.32181 0.32179 h 0.1109853 0.1109853 l -0.032487,-0.39137 -0.032487,-0.39139 -0.2355014,0.008 -0.2355014,0.008 v -0.19092 -0.19093 H 5.0305939 4.9259263 v 0.57402 0.57401 h 0.09772 c 0.053742,0 0.1126196,-0.12553 0.1308347,-0.27896 z m 1.819393,0.16341 0.071623,-0.11555 -0.2136332,0.0676 -0.2136342,0.0677 -0.06732,-0.10861 -0.06732,-0.10861 H 6.751437 7.0192824 v -0.13568 c 0,-0.17301 -0.2117163,-0.38616 -0.3835869,-0.38616 -0.072811,0 -0.1787234,0.0862 -0.2353606,0.19187 l -0.1029764,0.19185 0.059163,0.22562 0.059163,0.2256 h 0.2432836 c 0.1338059,0 0.2755119,-0.0521 0.3149014,-0.11555 z m 1.0920768,-0.0858 v -0.20148 l 0.2355014,-0.0334 0.2355024,-0.0334 0.035322,-0.24912 0.035322,-0.24912 -0.1399917,-0.0884 c -0.076994,-0.0487 -0.2459673,-0.0892 -0.3754932,-0.09 l -0.2355014,-0.002 v 0.57402 0.57401 h 0.1046666 0.1046666 z m 0,-0.58129 v -0.15653 h 0.157001 0.1570019 v 0.15653 0.15656 H 8.2229538 8.0659528 Z m 1.4653427,0.48244 v -0.30033 L 9.3793243,129.6229 C 9.2071972,129.48046 8.8869296,129.51271 8.902521,129.671 l 0.010293,0.10437 0.2307442,-0.0206 0.2307442,-0.0206 -0.2878347,0.11897 -0.2878348,0.11899 v 0.18859 0.18858 h 0.3663352 0.3663352 v -0.30032 z m -0.5233361,0.0915 c 0,-0.0575 0.07343,-0.10436 0.1631778,-0.10436 H 9.334316 l -0.064684,0.10436 c -0.035582,0.0575 -0.1090095,0.10438 -0.1631788,0.10438 -0.054171,0 -0.098489,-0.047 -0.098489,-0.10438 z m 2.2674256,0.059 -0.05766,-0.14981 0.113798,-0.0379 0.113796,-0.0379 -0.12336,-0.22983 c -0.126797,-0.23625 -0.286902,-0.28445 -0.498034,-0.14996 -0.125609,0.0799 -0.174714,0.26288 -0.153696,0.57241 l 0.0124,0.18264 h 0.325201 0.3252 z m -0.383414,-0.059 c 0,-0.0575 0.0471,-0.10436 0.104666,-0.10436 0.05757,0 0.104668,0.047 0.104668,0.10436 0,0.0575 -0.0471,0.10438 -0.104668,0.10438 -0.05757,0 -0.104666,-0.047 -0.104666,-0.10438 z m 0.942005,-0.10436 v -0.3131 h 0.104669 c 0.05757,0 0.104666,-0.047 0.104666,-0.10437 v -0.10437 h -0.209333 -0.209334 v 0.41747 0.41747 h 0.104666 0.104668 z M 7.6472853,129.9317 v -0.10436 H 7.4379491 7.2286149 v 0.10436 0.10437 h 0.2093342 0.2093352 z m -4.7100298,-0.62619 c 0,-0.0575 -0.047103,-0.10437 -0.1046676,-0.10437 -0.057566,0 -0.1046677,0.047 -0.1046677,0.10437 0,0.0575 0.047103,0.10437 0.1046677,0.10437 0.057566,0 0.1046676,-0.047 0.1046676,-0.10437 z m 15.8047665,8.70845 v -0.25476 h -0.144235 c -0.07933,0 -0.221936,0.10567 -0.316905,0.23482 l -0.172671,0.23483 0.06647,-0.26092 0.06647,-0.26092 -0.180619,0.17263 -0.180619,0.17263 0.07089,0.11438 c 0.039,0.063 0.162317,0.11438 0.274054,0.11438 h 0.203157 v -0.15039 c 0,-0.0827 0.05397,-0.18365 0.119932,-0.2243 l 0.119932,-0.0738 -0.07179,0.28523 -0.07179,0.28523 0.108863,-0.0671 c 0.05987,-0.0369 0.108863,-0.18173 0.108863,-0.32185 z m 5.951784,0.0323 -0.01426,-0.3392 -0.04536,0.23483 -0.04536,0.23482 h -0.306722 -0.306723 v 0.10437 0.10437 h 0.366336 0.366335 z m 3.991612,0.23482 v -0.10437 l -0.235502,-0.007 -0.235501,-0.007 0.235501,-0.11324 c 0.129526,-0.0624 0.235502,-0.15305 0.235502,-0.20168 v -0.0883 l -0.392503,0.0142 -0.392502,0.0142 0.246365,0.0467 0.246364,0.0467 -0.220197,0.1538 c -0.121109,0.0846 -0.220199,0.19809 -0.220199,0.25223 v 0.0984 h 0.366337 0.366335 z m 1.659059,-0.0102 c 0.181291,-0.0631 0.329621,-0.14983 0.329621,-0.19291 0,-0.0431 -0.188402,-0.15212 -0.41867,-0.2423 l -0.418669,-0.16399 v 0.0872 c 0,0.0481 0.129526,0.13255 0.287834,0.18789 l 0.287836,0.10063 -0.287836,0.11422 c -0.279449,0.11089 -0.379716,0.22376 -0.198785,0.22376 0.04898,0 0.237376,-0.0516 0.418669,-0.11457 z m -3.647738,-0.19854 v -0.10436 h -0.366336 -0.366335 v 0.10436 0.10437 h 0.366335 0.366336 z m -5.985854,-0.44244 -0.03252,-0.21959 -0.157001,-0.0513 -0.157001,-0.0513 0.147331,0.17795 0.147332,0.17794 -0.114129,0.1138 -0.11413,0.1138 -0.171253,-0.0656 -0.171253,-0.0656 0.07076,-0.22232 0.07076,-0.22232 -0.115882,0.0715 c -0.06374,0.0393 -0.115881,0.16024 -0.115881,0.2688 v 0.1974 l 0.180466,0.1007 0.180464,0.10069 0.192223,-0.10257 0.192224,-0.10257 z m -4.271545,0.0772 c 0.05472,-0.1435 0.129694,-0.26091 0.166614,-0.26091 0.03692,0 0.04462,0.11741 0.0171,0.26091 l -0.05002,0.26092 h 0.09015 0.09015 v -0.3131 -0.3131 H 16.593751 16.43416 l -0.09949,0.26092 c -0.05472,0.14351 -0.129308,0.26092 -0.165757,0.26092 -0.03645,0 -0.03451,-0.12915 0.0043,-0.28701 l 0.07056,-0.28701 -0.178202,0.17454 -0.178202,0.17455 0.06337,0.16465 0.06337,0.16464 h 0.162876 0.162876 l 0.09949,-0.26092 z m 5.966039,0 c 0.05472,-0.1435 0.129307,-0.26091 0.165756,-0.26091 0.03645,0 0.03672,0.11741 6.29e-4,0.26091 l -0.06567,0.26092 h 0.106661 0.106661 v -0.25475 -0.25476 l -0.119028,-0.0735 -0.11903,-0.0734 -0.201534,0.24983 -0.201534,0.24983 0.0701,-0.24789 0.07011,-0.2479 -0.115882,0.0714 c -0.127342,0.0785 -0.156448,0.40132 -0.0461,0.51136 0.132907,0.13252 0.249858,0.0685 0.348891,-0.19135 z m 4.29136,0.0523 v -0.10437 l -0.235501,-0.005 -0.235502,-0.005 0.235502,-0.1638 c 0.129526,-0.09 0.235501,-0.20505 0.235501,-0.25545 v -0.0916 h -0.366336 -0.366335 v 0.10436 c 0,0.0575 0.08243,0.10579 0.183167,0.10754 l 0.183168,0.003 -0.183168,0.10637 c -0.100742,0.0586 -0.183167,0.17449 -0.183167,0.25775 v 0.15136 h 0.366335 0.366336 v -0.10436 z m -1.98868,-0.20873 c 0,-0.0575 -0.07065,-0.10437 -0.157001,-0.10437 -0.210279,0 -0.200188,-0.16988 0.01499,-0.25221 0.09459,-0.0362 0.142828,-0.0948 0.107195,-0.1304 -0.03563,-0.0356 -0.136572,-0.005 -0.224314,0.0675 l -0.159531,0.13202 -0.157001,-0.12993 -0.157001,-0.12992 v 0.0962 c 0,0.053 0.05652,0.15263 0.125601,0.2215 l 0.125601,0.12525 h -0.125601 c -0.06908,0 -0.125601,0.047 -0.125601,0.10437 v 0.10436 h 0.366336 0.366335 z m -6.594041,-0.10437 v -0.10437 l 0.340168,-0.0167 0.340169,-0.0167 -0.340169,-0.0421 -0.340168,-0.0421 v -0.14993 c 0,-0.0824 -0.0471,-0.14994 -0.104667,-0.14994 h -0.104668 v 0.3131 0.31311 h 0.104668 c 0.05757,0 0.104667,-0.047 0.104667,-0.10437 z m 10.5714,-0.14377 v -0.24814 l -0.151978,-0.12577 -0.151978,-0.12576 -0.214358,0.0678 -0.214358,0.0678 v 0.30607 0.30607 h 0.366337 0.366335 z m -0.628004,-0.12441 v -0.16381 l 0.227303,0.0334 c 0.125016,0.0184 0.246692,0.092 0.270391,0.1638 l 0.04309,0.13046 h -0.27039 -0.27039 z m 2.250347,0.1093 0.209336,0.002 -0.02617,0.13047 -0.02617,0.13046 h 0.112342 0.112342 l -0.03518,-0.18264 -0.03518,-0.18265 -0.312662,-0.012 -0.312663,-0.012 -0.07159,0.11139 c -0.03938,0.0614 -0.04303,0.15751 -0.0081,0.21384 l 0.06349,0.10242 0.06044,-0.15194 0.06045,-0.15194 0.209334,0.002 z m -13.78992,-0.23199 c 0.279339,-0.0605 0.3161,-0.23534 0.04946,-0.23534 -0.102327,0 -0.290728,-0.073 -0.41867,-0.16246 l -0.232624,-0.16246 v 0.11355 c 0,0.0625 0.07268,0.14138 0.16152,0.17536 l 0.161519,0.0619 -0.187686,0.21353 -0.187687,0.21353 0.209335,-0.0832 c 0.115134,-0.0459 0.31531,-0.10621 0.444836,-0.13423 z m 30.250287,-3.91425 0.0276,-3.41801 H 41.03759 35.279457 v 3.37453 3.37451 l 0.07067,0.0705 0.07067,0.0706 5.659865,-0.027 5.659867,-0.027 z m -11.279334,1.64378 v -1.51333 h 1.203674 1.203675 v 1.51333 1.51331 h -1.203677 -1.203674 z m 1.518541,0.46824 c 0.03605,-0.0582 0.06951,-0.24439 0.07434,-0.41385 l 0.0088,-0.30808 -0.131483,-0.15798 -0.131484,-0.15796 -0.198344,0.10584 -0.198343,0.10585 v 0.34073 0.34073 l 0.1256,0.12525 c 0.153417,0.15297 0.362588,0.16201 0.450933,0.0195 z m -0.3672,-0.46824 v -0.3653 h 0.104667 0.104668 v 0.3653 0.36528 h -0.104669 -0.104667 z m 1.57001,0 v -1.51333 h 4.186693 4.186694 v 1.51333 1.51331 h -4.186696 -4.186693 z m 1.386023,0.44355 c 0.02626,-0.0718 0.02615,-0.30658 -2.1e-4,-0.52184 l -0.048,-0.39137 h -0.122985 c -0.12998,0 -0.482161,0.52637 -0.482161,0.72057 v 0.11437 h 0.209334 0.209335 v 0.10436 c 0,0.14902 0.177831,0.12925 0.234682,-0.0261 z m -0.444017,-0.38522 c 0,-0.0541 0.0471,-0.12723 0.104667,-0.1627 l 0.104668,-0.0646 v 0.1627 c 0,0.0895 -0.0471,0.16271 -0.104668,0.16271 -0.05757,0 -0.104667,-0.0442 -0.104667,-0.0981 z m 1.465342,-0.0584 v -0.57402 h -0.104667 -0.104667 v 0.57402 0.57401 h 0.104667 0.104667 z m 0.41867,0.15654 v -0.41747 h -0.104669 -0.104666 v 0.41747 0.41747 h 0.104666 0.104668 z m 0.418669,0.10437 v -0.3131 h 0.157001 0.157001 v 0.3131 0.3131 h 0.110986 0.110985 l -0.03249,-0.39137 -0.03249,-0.39138 -0.340169,-0.017 -0.340169,-0.017 v 0.4084 0.40838 h 0.104668 0.104667 z m 1.360675,0.19757 v -0.11554 l -0.153648,0.0589 -0.153649,0.0589 -0.06186,-0.0997 -0.06186,-0.0997 h 0.27552 0.27552 l -0.03384,-0.17146 c -0.01861,-0.0942 -0.112319,-0.22073 -0.208236,-0.28095 l -0.174393,-0.1095 -0.165776,0.13718 c -0.09117,0.0755 -0.165773,0.21596 -0.165773,0.31227 0,0.22892 0.203128,0.42556 0.439602,0.42556 h 0.188401 z m 1.404449,0.0522 0.165562,-0.0634 v -0.20299 -0.20301 l -0.321932,-0.11189 -0.321933,-0.11192 0.108161,-0.10784 0.108163,-0.10786 0.163965,0.13569 0.163967,0.13569 0.07581,-0.0756 0.07581,-0.0756 -0.203009,-0.14801 c -0.111655,-0.0813 -0.258889,-0.14801 -0.327188,-0.14801 -0.0683,0 -0.17786,0.0646 -0.24347,0.14331 l -0.119289,0.14333 0.06171,0.16035 0.06171,0.16037 0.254095,0.0636 c 0.139751,0.035 0.254093,0.10966 0.254093,0.16597 v 0.10239 h -0.200597 -0.200612 l -0.04672,-0.13047 -0.04672,-0.13046 -0.08158,0.0759 -0.08158,0.0757 0.132398,0.15907 c 0.141592,0.17012 0.303584,0.19736 0.569209,0.0957 z m 0.58423,-0.13846 v -0.20179 l 0.277279,-0.0331 0.277278,-0.0331 0.112871,-0.17976 0.112873,-0.17977 -0.111348,-0.11103 c -0.06124,-0.0611 -0.28391,-0.13895 -0.494818,-0.17307 l -0.383469,-0.0621 v 0.58766 0.58768 h 0.104668 0.104666 z m 0,-0.58094 c 0,-0.16834 0.09587,-0.19341 0.357174,-0.0933 l 0.16496,0.0632 -0.05791,0.0934 c -0.03185,0.0514 -0.14933,0.0933 -0.261067,0.0933 H 44.80419 Z m 1.151341,0.20874 v -0.57402 h -0.104668 -0.104667 v 0.57402 0.57401 h 0.104667 0.104667 z m -5.652035,0.15654 v -0.10437 h -0.209336 -0.209335 v 0.10437 0.10437 h 0.209335 0.209335 z m 0.732671,-0.6262 c 0,-0.0575 -0.0471,-0.10436 -0.104668,-0.10436 -0.05756,0 -0.104666,0.047 -0.104666,0.10436 0,0.0575 0.0471,0.10436 0.104666,0.10436 0.05757,0 0.104668,-0.047 0.104668,-0.10436 z m -5.547369,-2.81789 v -1.56551 h 1.203674 1.203675 v 1.56551 1.5655 h -1.203677 -1.203674 z m 1.465343,-0.0522 c 0,-0.31571 -0.03013,-0.57402 -0.06696,-0.57402 -0.08371,0 -0.34389,0.33587 -0.348379,0.44972 l -0.0033,0.0844 0.104668,-0.0646 0.104667,-0.0646 v 0.37145 0.37143 h 0.104668 0.104667 z m 1.256008,0.0522 v -1.56551 h 4.186693 4.186694 v 1.56551 1.5655 h -4.186696 -4.186693 z m 1.304478,0.35421 0.16809,-0.1676 -0.103899,-0.12483 -0.103901,-0.12483 0.05639,-0.21501 0.05639,-0.215 -0.184017,-0.0704 -0.184017,-0.0704 -0.164585,0.17157 -0.164586,0.1716 0.214746,-0.0639 0.214743,-0.0639 0.0105,0.36954 0.0105,0.36952 -0.199083,-0.063 -0.199082,-0.0631 v 0.10271 c 0,0.0939 0.156678,0.1958 0.332692,0.21622 0.03907,0.005 0.146665,-0.0673 0.239114,-0.15938 z m 3.314236,-0.006 0.143649,-0.17387 -0.287834,0.0716 -0.287836,0.0716 v -0.10636 -0.10636 h 0.26535 0.265352 l -0.112033,-0.20874 -0.112032,-0.20873 h -0.203658 -0.203658 l -0.06601,0.26228 -0.06601,0.26227 0.129171,0.15519 c 0.07104,0.0854 0.188287,0.15519 0.26054,0.15519 0.07225,0 0.196012,-0.0782 0.27502,-0.17385 z m -0.379687,-0.45235 c 0.03558,-0.0575 0.08546,-0.10437 0.110845,-0.10437 0.02539,0 0.04615,0.047 0.04615,0.10437 0,0.0575 -0.04988,0.10438 -0.110845,0.10438 h -0.110844 z m 1.733891,0.51817 0.202455,-0.10805 v -0.16194 -0.16193 l -0.314002,-0.11818 c -0.172701,-0.0651 -0.314003,-0.15996 -0.314003,-0.21099 v -0.0927 l 0.271913,0.068 0.271912,0.0681 -0.04461,-0.13501 c -0.02453,-0.0744 -0.139242,-0.14902 -0.254904,-0.16614 l -0.210296,-0.0312 -0.130687,0.157 -0.130685,0.15702 0.07151,0.11537 c 0.03934,0.0635 0.184688,0.15829 0.323012,0.21072 0.266697,0.10111 0.344389,0.30926 0.115434,0.30926 -0.07484,0 -0.191803,-0.0557 -0.259923,-0.12351 l -0.123857,-0.1235 -0.08008,0.0799 -0.08008,0.0798 0.203008,0.14801 c 0.111656,0.0813 0.220652,0.14801 0.242218,0.14801 0.02157,0 0.130315,-0.0487 0.241663,-0.10803 z m -3.56557,-0.51817 v -0.52183 h -0.104667 -0.104667 v 0.52183 0.52184 h 0.104667 0.104667 z m 0.41867,0.15655 v -0.36528 h -0.104669 -0.104666 v 0.36528 0.36529 h 0.104666 0.104668 z m 0.437884,0.10112 c 0.01821,-0.14528 0.08022,-0.27443 0.137786,-0.287 l 0.104668,-0.0229 0.03312,0.28701 0.03312,0.28701 h 0.104348 0.104346 l -0.0328,-0.3392 -0.0328,-0.33918 -0.340169,-0.017 -0.340169,-0.017 v 0.35621 0.3562 h 0.09772 c 0.05374,0 0.112619,-0.11887 0.130834,-0.26417 z m 3.330139,0.10762 v -0.15655 h 0.201859 c 0.111023,0 0.275779,-0.0737 0.366128,-0.1638 l 0.164269,-0.1638 -0.108142,-0.20148 -0.108142,-0.20149 H 44.957503 44.59485 v 0.52183 0.52184 h 0.104668 c 0.05757,0 0.104666,-0.0705 0.104666,-0.15655 z m 0,-0.51418 v -0.1642 h 0.218057 0.218058 l -0.04356,0.13046 c -0.02396,0.0718 -0.122085,0.14564 -0.218058,0.1642 l -0.174494,0.0338 z m 1.151341,0.14889 v -0.52183 h -0.104668 -0.104667 v 0.52183 0.52184 h 0.104667 0.104667 z m -5.652035,0.20874 v -0.10436 h -0.209336 -0.209335 v 0.10436 0.10437 h 0.209335 0.209335 z m 0.732671,-0.6262 c 0,-0.0575 -0.0471,-0.10437 -0.104668,-0.10437 -0.05756,0 -0.104666,0.047 -0.104666,0.10437 0,0.0575 0.0471,0.10437 0.104666,0.10437 0.05757,0 0.104668,-0.047 0.104668,-0.10437 z m -21.038135,3.28755 v -0.15655 h 0.153319 0.153318 l 0.114149,-0.21268 0.114149,-0.21267 -0.06518,-0.20479 -0.06518,-0.2048 h -0.359282 -0.359282 v 0.57402 0.57401 h 0.157 0.157001 z m 0.0727,-0.32759 c -0.03998,-0.0399 -0.0727,-0.18207 -0.0727,-0.31601 v -0.24352 h 0.107953 c 0.159857,0 0.237169,0.27618 0.13051,0.46622 l -0.09306,0.16581 z m 3.995108,0.34467 c 0.06385,-0.0767 0.185273,-0.33502 0.269841,-0.57402 l 0.153759,-0.43455 H 24.38604 c -0.05687,0 -0.146576,0.10568 -0.199348,0.23483 l -0.09595,0.23482 -0.06988,-0.23482 c -0.03844,-0.12915 -0.116986,-0.23483 -0.174553,-0.23483 h -0.104667 l 0.06536,0.23483 c 0.03595,0.12915 0.09365,0.3405 0.12822,0.46965 l 0.06287,0.23483 h -0.116014 c -0.06381,0 -0.116014,0.047 -0.116014,0.10436 0,0.14829 0.163038,0.12919 0.299785,-0.0351 z m -9.498116,-0.56496 c 0.0068,-0.21526 0.0043,-0.43404 -0.0055,-0.48618 -0.0099,-0.0522 0.04344,-0.13361 0.118439,-0.18104 l 0.13636,-0.0862 -0.230301,-0.002 -0.2303,-0.002 -0.08667,0.15443 -0.08667,0.15442 0.04013,0.41959 0.04013,0.41959 h 0.146008 0.146006 l 0.0124,-0.39137 z m 0.807159,0.30018 0.139215,-0.088 -0.03454,-0.30177 -0.03455,-0.30178 -0.284183,-0.0327 -0.284185,-0.0327 -0.06767,0.26886 -0.06767,0.26885 0.129171,0.15519 c 0.145107,0.17435 0.298979,0.19386 0.504423,0.0641 z m -0.36111,-0.26909 c -0.06606,-0.17168 0.02819,-0.37029 0.175738,-0.37029 h 0.09849 v 0.26092 0.26092 h -0.107952 c -0.05937,0 -0.134198,-0.0683 -0.166275,-0.15155 z m 1.006899,0.0847 v -0.27551 l 0.183168,-0.13864 0.183168,-0.13864 -0.340169,-0.003 -0.340169,-0.003 v 0.41746 0.41748 h 0.157001 0.157001 z m 1.046673,0.0146 v -0.26092 h 0.106912 c 0.0588,0 0.160562,0.11742 0.226135,0.26092 l 0.119225,0.26092 h 0.152236 0.152239 l -0.180079,-0.27404 -0.180077,-0.27405 0.126005,-0.0778 0.126006,-0.0777 -0.03734,-0.19623 -0.03734,-0.19622 -0.391632,-0.0324 -0.391632,-0.0324 v 0.58031 0.58032 h 0.104667 0.104667 z m 0,-0.57402 v -0.10437 h 0.209335 0.209335 v 0.10437 0.10437 H 17.276675 17.06734 Z m 1.54914,0.42646 -0.03146,-0.37427 -0.247574,-0.035 -0.247574,-0.035 -0.118763,0.12741 -0.118761,0.12739 0.235396,-0.0567 0.235399,-0.0567 0.05399,0.087 0.05399,0.087 -0.237054,0.0336 -0.237055,0.0336 -0.03307,0.2319 -0.03306,0.23191 0.378529,-0.0142 0.378526,-0.0142 z m -0.450132,0.0953 c 0.03558,-0.0575 0.111789,-0.10438 0.169355,-0.10438 h 0.104668 l -0.06468,0.10438 c -0.03558,0.0575 -0.111788,0.10437 -0.169355,0.10437 h -0.104669 z m 1.289455,0.0261 0.03344,-0.23483 h -0.158103 c -0.08696,0 -0.184498,-0.0426 -0.216759,-0.0946 l -0.05865,-0.0946 0.225846,0.059 0.225846,0.059 -0.07488,-0.12081 -0.07488,-0.12081 H 19.102171 18.84668 v 0.20874 0.20872 h 0.150824 c 0.08295,0 0.1811,0.0489 0.218105,0.10856 l 0.06728,0.10855 -0.296605,-0.0736 -0.296605,-0.0738 0.147842,0.17889 0.147843,0.1789 0.218493,-0.0312 0.218493,-0.0312 z m 1.905014,0.0744 0.114148,-0.21267 -0.06518,-0.20479 -0.06518,-0.2048 H 21.14232 20.940039 v -0.15655 c 0,-0.0861 -0.0471,-0.15654 -0.104668,-0.15654 h -0.104667 v 0.57402 0.57401 h 0.257986 0.257985 z m -0.348082,0.0417 c -0.03999,-0.0399 -0.0727,-0.18207 -0.0727,-0.31601 v -0.24352 h 0.107951 c 0.159857,0 0.23717,0.27618 0.130512,0.46622 l -0.09306,0.16581 z m 1.26599,-0.0226 0.04675,-0.14142 -0.221718,0.0703 -0.221718,0.0703 v -0.1114 -0.11142 h 0.217008 0.21701 l -0.03491,-0.18263 -0.03491,-0.18264 -0.217425,-0.0312 -0.217424,-0.0312 -0.137064,0.16467 -0.137063,0.16468 0.121068,0.26494 0.121069,0.26496 0.22629,-0.0333 0.226291,-0.0333 z m -0.396687,-0.43261 c 0,-0.0575 0.0471,-0.10437 0.104667,-0.10437 0.05757,0 0.104667,0.047 0.104667,0.10437 0,0.0575 -0.0471,0.10436 -0.104667,0.10436 -0.05757,0 -0.104667,-0.047 -0.104667,-0.10436 z m 0.942005,0.3131 v -0.3131 h 0.104668 c 0.05757,0 0.104667,-0.047 0.104667,-0.10437 v -0.10437 h -0.26167 -0.261669 v 0.41746 0.41748 h 0.157001 0.157001 z m 0.523337,0 v -0.3131 h 0.157001 c 0.08635,0 0.157001,-0.0411 0.157001,-0.0913 v -0.0912 h -0.261668 -0.261668 v 0.40442 0.40442 h 0.104667 0.104667 z m 1.988679,0.0592 v -0.25398 l 0.287836,-0.0331 0.287834,-0.0331 v -0.26093 -0.26091 l -0.392502,-0.0324 -0.392502,-0.0324 v 0.58031 0.58032 h 0.104667 0.104667 z m 0,-0.52111 v -0.16421 h 0.218057 0.218058 l -0.04356,0.13047 c -0.02396,0.0718 -0.122085,0.14564 -0.218058,0.1642 l -0.174494,0.0338 z m 1.046674,0.35762 v -0.41749 H 26.278068 26.1734 v 0.41746 0.41748 h 0.104668 0.104667 z m 0,-0.62618 c 0,-0.0575 -0.0471,-0.10437 -0.104667,-0.10437 -0.05757,0 -0.104668,0.047 -0.104668,0.10437 0,0.0575 0.0471,0.10435 0.104668,0.10435 0.05757,0 0.104667,-0.047 0.104667,-0.10435 z m -4.919365,-1.28652 v -0.3472 l 0.287836,0.0408 0.287834,0.0408 0.209336,-0.15475 0.209334,-0.15475 v -0.48727 -0.48728 l -0.252752,-0.20409 -0.252751,-0.20407 -0.165918,0.0708 c -0.09125,0.0389 -0.295444,0.0637 -0.453753,0.0552 l -0.287835,-0.0157 v 1.09751 1.0975 h 0.209335 0.209334 z m 0.166342,-0.62456 -0.182818,-0.1333 0.0344,-0.35981 0.0344,-0.35983 0.196792,-0.0373 0.196794,-0.0373 0.08944,0.14072 c 0.04919,0.0774 0.09016,0.26414 0.09104,0.41496 l 0.0016,0.27423 -0.139421,0.11537 -0.139422,0.11538 -0.182819,-0.1333 z m -6.184714,0.13683 0.189446,-0.20872 H 15.36273 c -0.149441,0 -0.29955,0.045 -0.333576,0.0997 l -0.06186,0.0997 -0.15365,-0.0589 c -0.08451,-0.0324 -0.153648,-0.12421 -0.153648,-0.20418 v -0.14538 h 0.471003 0.471002 v -0.16173 c 0,-0.0889 -0.06877,-0.29433 -0.152808,-0.45639 l -0.152809,-0.29464 -0.224061,-0.0585 -0.224062,-0.0585 -0.248105,0.11273 -0.248107,0.11271 -0.112334,0.3394 -0.112334,0.3394 0.06866,0.27275 c 0.03776,0.15002 0.145824,0.3177 0.24014,0.37263 0.09432,0.055 0.317263,0.10129 0.495433,0.10303 l 0.323946,0.003 z m -0.758886,-0.86102 c 0.02396,-0.0718 0.116158,-0.1445 0.204887,-0.16167 l 0.161324,-0.0313 0.06222,0.16168 0.06222,0.16168 h -0.267107 -0.267106 z m 2.904567,0.6523 v -0.41747 h 0.458188 0.458187 l 0.116862,-0.14041 c 0.06427,-0.0771 0.143925,-0.27682 0.177003,-0.44355 l 0.06014,-0.30315 -0.220598,-0.23483 -0.220597,-0.23482 h -0.623928 -0.623926 v 1.09584 1.09586 h 0.209335 0.209334 z m 0,-1.09585 v -0.36529 h 0.254192 0.254192 l 0.164271,0.1638 0.164269,0.1638 -0.108142,0.20149 -0.108142,0.20148 h -0.31032 -0.31032 z m 2.911043,0.82384 -0.04258,-0.66671 -0.118535,-0.1182 -0.118534,-0.11819 -0.384367,-0.0126 -0.384368,-0.0126 -0.158239,0.23353 -0.158238,0.23355 0.179477,0.0686 0.179477,0.0688 0.08048,-0.12985 0.08048,-0.12983 0.18812,0.0364 c 0.103466,0.02 0.204411,0.0852 0.224323,0.14482 l 0.0362,0.10845 -0.459716,0.1226 -0.459717,0.12259 -0.0646,0.16789 -0.0646,0.16789 0.106666,0.19873 0.106667,0.19874 0.637095,-0.009 0.637096,-0.009 -0.04258,-0.66671 z m -0.856268,0.40749 c -0.03635,-0.0363 -0.06609,-0.12853 -0.06609,-0.20506 v -0.13916 h 0.261668 0.261668 v 0.10069 c 0,0.13121 -0.371475,0.32905 -0.45724,0.24353 z m 4.413666,0.15674 c 0.06908,-0.069 0.125601,-0.16569 0.125601,-0.21513 v -0.0898 l -0.471004,0.0704 -0.471002,0.0705 v -0.16841 -0.1684 h 0.523337 0.523336 v -0.10771 c 0,-0.0593 -0.06558,-0.26423 -0.145738,-0.45552 l -0.145738,-0.3478 -0.275079,-0.0688 -0.275079,-0.0689 -0.212198,0.11324 c -0.231333,0.12346 -0.411511,0.50301 -0.411511,0.86687 0,0.127 0.07332,0.33528 0.162936,0.46286 l 0.162937,0.23196 h 0.3918 0.391802 z m -0.790238,-0.94452 0.04361,-0.13045 h 0.19189 0.19189 l 0.04361,0.13045 0.04361,0.13047 h -0.279113 -0.279113 z m 1.878542,0.52184 0.03164,-0.54793 h 0.209335 0.209335 l 0.0787,-0.19227 c 0.04329,-0.10576 0.0503,-0.23811 0.01558,-0.29414 l -0.06313,-0.10183 -0.172582,0.0733 c -0.09492,0.0403 -0.302106,0.0663 -0.460415,0.0577 l -0.287836,-0.0156 v 0.78441 0.78441 h 0.203865 0.203865 z m 2.177317,0.0784 v -0.46965 h 0.418669 0.41867 v 0.46965 0.46965 h 0.209334 0.209334 v -1.09586 -1.09584 H 28.371414 28.16208 v 0.46965 0.46965 H 27.743409 27.32474 v -0.46965 -0.46965 h -0.26167 -0.261668 v 1.09584 1.09586 h 0.261668 0.261669 z m 2.123673,0.2609 0.05474,-0.20872 h 0.468595 0.468594 l 0.05474,0.20872 0.05474,0.20875 h 0.277644 0.277645 l -0.0461,-0.0784 c -0.107779,-0.18304 -0.500839,-1.09 -0.674515,-1.55642 l -0.187972,-0.50482 h -0.241295 -0.241295 l -0.395817,1.06975 -0.395816,1.06977 h 0.235677 0.235678 z m 0.305799,-0.9132 c 0.06727,-0.15786 0.152199,-0.32339 0.188737,-0.36786 l 0.06643,-0.0809 0.113223,0.36786 0.113223,0.36785 h -0.30196 -0.301962 z m 2.594559,0.18265 v -0.93931 h 0.366337 0.366335 v -0.15655 -0.15654 h -0.889668 -0.889673 v 0.15654 0.15655 h 0.314002 0.314002 v 0.93931 0.9393 h 0.209335 0.209334 z m -15.490764,0.20872 v -0.20872 h -0.41867 -0.418669 v 0.20872 0.20874 h 0.418669 0.41867 z m -12.9787505,-4.54 v -0.67839 h 0.3663351 0.3663362 v 0.67839 0.67838 h 0.4186695 0.4186695 v -0.67838 -0.67839 h 1.0466731 1.0466732 v 0.67839 0.67838 h 0.3663352 0.3663362 v -0.67403 -0.67401 l 1.0466732,0.0637 1.0466723,0.0637 v -0.38105 -0.38105 H 9.7406271 9.1126224 v -0.73057 -0.73057 H 9.7406271 10.36863 v -0.41747 -0.41746 H 9.6359595 8.9032882 v 1.40895 1.40894 H 5.5364889 c -1.851739,0 -3.3442172,-0.0225 -3.3166204,-0.0501 0.027595,-0.0276 1.5191067,-0.0534 3.314465,-0.0574 l 3.2642871,-0.007 v -1.34681 -1.34681 l -3.8726909,-0.007 -3.87269,-0.007 v 0.42902 0.42902 l 0.6018366,-0.0354 0.6018376,-0.0354 v 0.78276 0.78275 l -0.6018376,-0.0354 -0.6018366,-0.0354 v 0.39028 0.3903 l 0.9943399,-0.0651 0.9943379,-0.0652 v 0.67558 0.6756 H 3.460587 3.8792565 v -0.67838 z m -1.5233118,-1.93988 -0.070325,-0.11346 0.094056,-0.0938 0.094056,-0.0937 v 0.20723 c 0,0.114 -0.010682,0.20726 -0.023731,0.20726 -0.013049,0 -0.055369,-0.0511 -0.094056,-0.11346 z m 36.6915343,1.93988 v -0.67839 h 0.314003 0.314002 v 0.67839 0.67838 h 0.418669 0.418669 v -0.67838 -0.67839 h 1.046673 1.046674 v 0.67839 0.67838 h 0.366335 0.366337 v -0.67739 -0.6774 l 1.099006,0.0671 1.099007,0.0671 v -0.38115 -0.38114 h -0.57567 -0.57567 v -0.73057 -0.73057 h 0.57567 0.57567 v -0.41747 -0.41746 h -3.925025 -3.925025 v 1.35532 1.35533 l 3.375522,0.0291 3.375521,0.0291 -3.485338,0.0246 -3.485338,0.0246 0.01709,-1.38286 0.01709,-1.38285 -0.692278,-0.0309 -0.692277,-0.0309 v 0.42224 0.42222 h 0.628003 0.628004 v 0.73057 0.73057 h -0.628 -0.628003 v 0.38097 0.38097 l 1.046673,-0.0685 1.046673,-0.0684 v 0.67891 0.67891 h 0.41867 0.418668 z m -43.1695692,-1.0597 0.5340495,-0.24379 0.3390129,-0.42065 c 0.1864567,-0.23136 0.4365452,-0.6405 0.555749,-0.90921 l 0.2167342,-0.48855 -0.00609,-0.68293 -0.00609,-0.68294 -0.2669289,-0.57664 -0.26693,-0.57663 -0.3432739,-0.32532 c -0.1887989,-0.17893 -0.5552239,-0.43264 -0.8142757,-0.56378 l -0.4710028,-0.23845 h -0.8373389 -0.837338 l -0.4710028,0.23827 c -0.2590518,0.13104 -0.6503631,0.40941 -0.8695812,0.61857 l -0.3985773,0.38031 -0.220467,0.46965 -0.220467,0.46965 -7.079e-4,0.83493 -7.088e-4,0.83494 0.2698242,0.52183 c 0.148403,0.28701 0.4037419,0.64318 0.5674189,0.79149 0.4326715,0.39205 1.0639968,0.72783 1.5488719,0.82382 l 0.4234007,0.0837 0.5208312,-0.0574 0.5208312,-0.0574 z m -2.609699,-1.94086 c -0.082026,-0.12914 -0.1799843,-0.38259 -0.2176825,-0.56319 l -0.068538,-0.32839 0.163661,-0.39057 c 0.090013,-0.21482 0.2643641,-0.47765 0.3874446,-0.5841 0.203373,-0.17587 0.8235136,-0.40529 1.0831076,-0.4007 0.057566,0.001 -0.1308338,0.12993 -0.4186695,0.28643 l -0.5233361,0.28458 -0.1830054,0.36527 -0.1830053,0.36528 -1.628e-4,0.47488 -1.627e-4,0.47486 0.1256014,0.12525 c 0.069077,0.069 0.093717,0.12523 0.05475,0.12523 -0.038966,0 -0.1379671,-0.10566 -0.2199938,-0.23483 z m 60.3803612,1.93482 c 0.287835,-0.14345 0.657254,-0.38503 0.820932,-0.53684 0.163676,-0.15181 0.419016,-0.51085 0.567419,-0.79786 l 0.269824,-0.52183 0.0037,-0.83494 0.0037,-0.83493 -0.273927,-0.52184 c -0.150659,-0.28701 -0.431208,-0.6694 -0.623441,-0.84976 -0.192226,-0.18038 -0.561458,-0.43526 -0.82051,-0.5664 l -0.471003,-0.23845 h -0.837339 -0.837338 l -0.471003,0.23845 c -0.259051,0.13114 -0.625476,0.38485 -0.814276,0.56378 l -0.343275,0.32532 -0.270603,0.57663 -0.270605,0.57664 -7.5e-5,0.73713 -7.4e-5,0.73713 0.23585,0.46099 c 0.129718,0.25353 0.380153,0.64001 0.556524,0.85886 l 0.320674,0.39788 0.476098,0.21912 c 0.261854,0.12051 0.664499,0.25223 0.894767,0.29272 0.230268,0.0405 0.630621,0.0524 0.889673,0.0264 l 0.471002,-0.0473 z m -0.209104,-1.92629 0.169656,-0.2785 0.006,-0.43345 0.006,-0.43346 -0.191276,-0.35417 -0.191277,-0.35416 -0.295525,-0.12206 c -0.162538,-0.0672 -0.274841,-0.14268 -0.249562,-0.16789 0.02528,-0.0252 0.195769,0.0315 0.378866,0.12583 l 0.332901,0.17166 0.20495,0.46198 0.204952,0.462 -0.06946,0.36915 -0.06946,0.36915 -0.203217,0.23121 -0.203212,0.23119 z M 2.4139148,122.31328 v -0.10437 H 2.623248 2.8325833 v 0.10437 c 0,0.0575 0.044846,0.10437 0.099657,0.10437 h 0.099657 L 2.8573311,121.948 c -0.096013,-0.2583 -0.2126727,-0.46965 -0.2592475,-0.46965 -0.081357,0 -0.1773965,0.20243 -0.3342447,0.70447 l -0.07336,0.23483 H 2.3022 c 0.061449,0 0.1117211,-0.047 0.1117211,-0.10437 z M 2.5185814,121.948 c 0,-0.0861 0.01851,-0.15655 0.041133,-0.15655 0.022623,0 0.068248,0.0705 0.101383,0.15655 l 0.060241,0.15656 h -0.101381 c -0.055759,0 -0.101383,-0.0705 -0.101383,-0.15656 z m 6.594041,0.25831 v -0.21135 l -0.3140018,-0.0627 C 8.4510197,121.86286 8.3696789,121.687 8.6852312,121.687 h 0.2006126 l 0.046723,0.13047 0.046724,0.13045 0.092668,-0.0867 0.092668,-0.0868 -0.2030086,-0.14802 C 8.849963,121.545 8.6734111,121.47834 8.5692796,121.47834 h -0.189329 v 0.46965 0.46965 h 0.3663352 0.3663351 z m -0.6280037,-0.0573 v -0.1642 l 0.1744943,0.0338 c 0.095973,0.0186 0.1940982,0.0924 0.218058,0.1642 l 0.043559,0.13046 H 8.7026717 8.4846147 Z m 29.3068533,-0.20108 v -0.46965 h -0.08373 c -0.111241,0 -0.334936,0.22717 -0.334936,0.34014 v 0.0896 l 0.104668,-0.0646 0.104667,-0.0646 v 0.31926 0.31926 h 0.104667 0.104668 z m 6.101032,0.26091 c 0.03011,-0.1148 0.03011,-0.30265 0,-0.41746 l -0.05474,-0.20873 h -0.249461 -0.24946 v 0.41747 0.41746 h 0.24946 0.249461 z m -0.344329,-0.20872 v -0.32543 l 0.104667,0.0646 c 0.05757,0.0355 0.104667,0.15288 0.104667,0.26092 0,0.10802 -0.0471,0.22543 -0.104667,0.2609 l -0.104667,0.0646 z M 3.0419235,120.95584 c 0,-0.11482 0.035322,-0.20318 0.078502,-0.19639 0.2094999,0.033 0.3201967,-0.0293 0.3666087,-0.20627 0.027964,-0.10665 0.00759,-0.27103 -0.045326,-0.36527 l -0.096182,-0.17138 H 3.0890573 2.8325903 v 0.57401 0.57402 h 0.1046676 0.1046666 z m 0,-0.57403 v -0.26091 h 0.093467 c 0.1220711,0 0.2380112,0.30483 0.1623621,0.42688 -0.032367,0.0523 -0.1031711,0.0949 -0.1573414,0.0949 h -0.098489 z m 2.5157358,0.30446 c 0.1130878,-0.26307 0.2056153,-0.52139 0.2056153,-0.57402 0,-0.0527 -0.041991,-0.0956 -0.093317,-0.0956 -0.051326,0 -0.123358,0.11933 -0.1600699,0.26518 l -0.066751,0.26519 -0.1015997,-0.0627 c -0.055879,-0.0345 -0.1015986,-0.15377 -0.1015986,-0.26519 v -0.20257 H 5.1352719 c -0.057566,0 -0.1046676,0.04 -0.1046676,0.0888 0,0.0489 0.052055,0.23766 0.1156686,0.41963 l 0.1156676,0.33086 -0.1284836,0.15437 -0.1284847,0.15437 h 0.1735359 0.1735368 z m 5.5227147,0.35305 0.125601,-0.12524 v -0.43289 -0.43289 l -0.312739,-0.009 -0.312738,-0.009 -0.09225,0.16436 c -0.05074,0.0904 -0.06936,0.25161 -0.04139,0.35827 l 0.05086,0.19391 h 0.258183 0.258185 l -0.04642,0.13045 -0.04642,0.13045 -0.230045,-0.026 -0.230043,-0.026 0.06459,0.1042 c 0.08859,0.14294 0.402116,0.13105 0.554639,-0.0211 z m -0.440816,-0.48603 c -0.03424,-0.0553 -0.03276,-0.17713 0.0033,-0.27084 l 0.06557,-0.17037 0.117939,0.0392 c 0.154931,0.0516 0.152366,0.41043 -0.0033,0.46216 -0.06668,0.0222 -0.149261,-0.005 -0.183506,-0.0602 z m 36.02771,0.48603 0.1256,-0.12524 v -0.44878 -0.44877 H 46.48086 46.168852 l -0.06419,0.25499 c -0.0353,0.14024 -0.03341,0.30461 0.0042,0.36528 0.0376,0.0607 0.163707,0.11029 0.28024,0.11029 h 0.21188 l -0.04462,0.13046 -0.04462,0.13045 -0.251938,-0.0308 -0.25194,-0.0308 0.157001,0.10745 c 0.08635,0.0592 0.206456,0.10815 0.266901,0.10903 0.06044,8.8e-4 0.166422,-0.0548 0.235502,-0.12364 z m -0.378849,-0.63142 c 0.01839,-0.12915 0.08055,-0.23481 0.138113,-0.23481 0.05757,0 0.119719,0.10566 0.138114,0.23481 l 0.03344,0.23482 H 46.42653 46.25497 Z m -43.8261793,0.30284 0.192996,-0.14071 -0.074498,-0.1202 c -0.040973,-0.0662 -0.1659223,-0.1202 -0.2776583,-0.1202 H 2.0999219 v -0.11139 -0.11141 l 0.2355014,0.0709 0.2355004,0.0709 -0.119716,-0.12588 -0.1197159,-0.12589 -0.1930839,0.0371 -0.1930828,0.0371 -0.033006,0.17087 -0.032996,0.17088 0.2934685,0.11555 0.2934665,0.11556 -0.2878337,-0.0549 -0.2878347,-0.0549 v 0.0976 c 0,0.0865 0.1534318,0.1877 0.3201627,0.21118 0.032177,0.005 0.1453451,-0.0552 0.2514923,-0.13248 z m 2.3385039,-0.31522 -0.031808,-0.3251 -0.1942859,-0.0368 -0.1942848,-0.0368 -0.119717,0.12952 -0.119716,0.12952 0.1798156,-0.0631 0.1798155,-0.0631 0.061859,0.0997 0.061859,0.0997 H 4.46728 c -0.1944126,0 -0.3101851,0.17297 -0.2392133,0.35739 l 0.053363,0.13863 0.2755588,-0.0526 0.2755588,-0.0526 z m -0.3458107,0.14284 c 0.035582,-0.0575 0.08546,-0.10437 0.1108445,-0.10437 0.025388,0 0.046154,0.047 0.046154,0.10437 0,0.0575 -0.049878,0.10436 -0.1108445,0.10436 H 4.3902428 Z m 3.6179031,0.20506 0.2024545,-0.10803 v -0.19229 c 0,-0.10575 -0.068388,-0.24888 -0.1519732,-0.31804 l -0.1519722,-0.12577 -0.1881968,0.0358 -0.1881959,0.0358 -0.034204,0.23949 -0.034204,0.23952 0.1255185,0.1508 c 0.069037,0.083 0.1463963,0.15081 0.1719165,0.15081 0.025518,0 0.1375029,-0.0487 0.2488516,-0.10805 z M 7.7708404,120.4079 c 0.0184,-0.12915 0.080548,-0.23481 0.1381139,-0.23481 0.057566,0 0.119719,0.10566 0.1381138,0.23481 l 0.033445,0.23482 H 7.9089533 7.7373932 Z m 29.0262976,0.33919 0.06468,-0.10437 h -0.110841 -0.110844 v -0.26091 -0.26091 h 0.112143 0.112145 l -0.169462,-0.16898 -0.169461,-0.16898 -0.0685,0.0684 c -0.07618,0.076 -0.04799,0.77625 0.03674,0.91296 0.07344,0.11849 0.22463,0.10995 0.303389,-0.0171 z m 0.6858,-0.0588 0.135761,-0.16312 -0.279946,0.0701 -0.279947,0.0701 v -0.11568 -0.11569 h 0.261669 c 0.143917,0 0.261668,-0.0197 0.261668,-0.0437 0,-0.024 -0.02859,-0.11793 -0.06354,-0.20873 l -0.06354,-0.16509 h -0.194454 -0.194454 l -0.10835,0.20188 c -0.05959,0.11102 -0.108349,0.22508 -0.108349,0.25346 0,0.0841 0.321803,0.3796 0.413329,0.3796 0.0464,0 0.145468,-0.0735 0.220137,-0.16312 z m -0.319464,-0.46925 v -0.11053 l 0.104667,0.0646 c 0.05756,0.0355 0.104667,0.0851 0.104667,0.11051 0,0.0254 -0.0471,0.0461 -0.104667,0.0461 -0.05757,0 -0.104667,-0.0498 -0.104667,-0.11053 z m 2.317874,0.52799 h 0.102737 l -0.0328,-0.33833 -0.0328,-0.33834 -0.194286,-0.0368 -0.194286,-0.0368 -0.119716,0.12952 -0.119717,0.12952 0.179816,-0.0631 0.179816,-0.0631 0.06186,0.0997 0.06186,0.0997 h -0.157001 c -0.08635,0 -0.187505,0.0493 -0.224787,0.10937 -0.03728,0.0602 -0.03966,0.18243 -0.0053,0.27174 l 0.06249,0.16238 0.16468,-0.0631 c 0.09057,-0.0347 0.210912,-0.0631 0.26742,-0.0631 z m -0.276861,-0.20873 c 0.03558,-0.0575 0.08546,-0.10437 0.110845,-0.10437 0.02539,0 0.04615,0.047 0.04615,0.10437 0,0.0575 -0.04988,0.10436 -0.110846,0.10436 h -0.110843 z m 1.308341,0.0415 c 0,-0.0306 -0.0942,-0.0258 -0.209334,0.0107 l -0.209335,0.0663 v -0.25817 -0.25818 l 0.235502,0.0567 0.235501,0.0567 -0.119717,-0.12835 -0.119716,-0.12836 -0.194286,0.0368 -0.194286,0.0368 -0.03454,0.30088 -0.03454,0.30088 0.133575,0.0823 0.133576,0.0823 0.188808,-0.10076 c 0.103844,-0.0555 0.188807,-0.12575 0.188807,-0.1563 z m 0.671777,0.20828 c 0.09106,-0.0349 0.165562,-0.10846 0.165562,-0.16359 v -0.10024 l -0.209334,0.0663 -0.209336,0.0662 v -0.1114 -0.1114 h 0.217009 0.217011 l -0.03527,-0.18264 -0.03527,-0.18264 h -0.260235 -0.260235 l -0.03454,0.30178 -0.03454,0.30177 0.139215,0.0879 c 0.07656,0.0485 0.14714,0.0887 0.156822,0.0896 0.0097,8.7e-4 0.09211,-0.0269 0.183168,-0.0618 z m -0.253108,-0.56902 v -0.11053 l 0.104668,0.0646 c 0.05757,0.0355 0.104668,0.0851 0.104668,0.11051 0,0.0254 -0.0471,0.0461 -0.104668,0.0461 -0.05757,0 -0.104668,-0.0498 -0.104668,-0.11053 z m 2.869728,0.49501 0.188388,-0.13736 -0.03755,-0.19065 c -0.02066,-0.10486 -0.119973,-0.24241 -0.220715,-0.30566 l -0.183168,-0.11503 -0.183168,0.11503 c -0.100742,0.0632 -0.200065,0.2008 -0.220716,0.30566 l -0.03755,0.19065 0.188387,0.13736 c 0.103613,0.0756 0.217483,0.13736 0.253045,0.13736 0.03556,0 0.149431,-0.0619 0.253044,-0.13736 z m -0.428582,-0.23847 -0.0643,-0.16708 0.145211,-0.0894 0.145211,-0.0895 0.09328,0.093 0.09328,0.0929 -0.06295,0.16356 c -0.03462,0.09 -0.113004,0.16356 -0.174184,0.16356 -0.06118,0 -0.140173,-0.0752 -0.175538,-0.16708 z m -42.2356634,0.14622 c 0.069077,-0.069 0.1256004,-0.22991 0.1256004,-0.35784 v -0.23258 l -0.1644767,-0.16399 -0.16447769,-0.164 h -0.3065261 -0.3065251 v 0.52182 0.52183 H 0.66597685 1.0113783 Z m -0.60707095,-0.34441 v -0.36529 h 0.19813657 0.19813657 l 0.0659021,0.17125 c 0.0362506,0.0941 0.0381176,0.25856 0.004193,0.36529 l -0.0617589,0.19402 H 0.73223736 0.52995557 Z m 1.15134075,0.10436 V 120.0165 H 1.5765818 1.4719152 v 0.36528 0.36528 h 0.1046666 0.1046676 z m 2.3026807,-0.15655 v -0.52181 H 3.8792625 3.7745948 v 0.52182 0.52183 h 0.1046677 0.1046676 z m 3.2812513,0.36863 0.058963,-0.15321 -0.088236,-0.0545 c -0.048531,-0.0299 -0.144118,0.0128 -0.2124162,0.0947 l -0.1241796,0.1492 -0.1550102,-0.0594 -0.1550102,-0.0594 0.031828,-0.27367 0.031828,-0.27368 0.3549817,0.0285 0.3549838,0.0285 -0.1322974,-0.15896 -0.1322974,-0.15894 H 6.8704018 c -0.1253567,0 -0.2844403,0.0564 -0.3535211,0.12522 -0.1354083,0.13502 -0.1644368,0.48735 -0.062068,0.75334 l 0.063536,0.1651 h 0.3439388 0.3439388 z m 1.4479931,-0.11096 c 0.01822,-0.14528 0.080219,-0.27444 0.1377864,-0.28701 l 0.1046666,-0.0229 0.033116,0.287 0.033116,0.28701 h 0.1043462 0.1043471 l -0.032796,-0.3392 -0.032796,-0.33919 -0.340169,-0.017 -0.340169,-0.017 v 0.3562 0.3562 h 0.09772 c 0.053742,0 0.1126186,-0.11887 0.1308338,-0.26416 z m 1.0398593,-0.0751 c 0.00679,-0.18655 0.00369,-0.4026 -0.00699,-0.48012 l -0.019398,-0.14093 0.1116672,0.0689 0.1116671,0.0687 v -0.11053 c 0,-0.16747 -0.2914368,-0.13219 -0.3922806,0.0475 l -0.088675,0.15802 0.0426,0.36382 0.0426,0.36383 h 0.093217 0.093217 z m 0.5109352,-0.0261 v -0.36528 h -0.104667 -0.104667 v 0.36528 0.36528 h 0.104667 0.104667 z m 25.015493,-0.15655 v -0.52182 H 35.122461 34.96546 v 0.52182 0.52183 h 0.157001 0.157001 z m 0.418669,0.20258 v -0.31927 l 0.104667,0.0646 c 0.05757,0.0355 0.104668,0.17914 0.104668,0.31924 v 0.25476 h 0.111298 0.1113 l -0.0328,-0.33919 -0.0328,-0.33919 -0.287834,-0.0331 -0.287836,-0.0331 v 0.3722 0.37223 h 0.104668 0.104667 z m 2.407349,0.0584 v -0.26092 h 0.104667 c 0.05757,0 0.104667,-0.047 0.104667,-0.10436 v -0.10437 h -0.261668 -0.261668 v 0.36528 0.36528 h 0.157001 0.157001 z m 0.636726,-0.0261 c 0.0048,-0.15785 0.02048,-0.39268 0.03484,-0.52183 l 0.02612,-0.23482 h -0.131834 -0.131835 l -0.03561,0.18264 c -0.05649,0.28972 0.034,0.86101 0.13638,0.86101 h 0.09322 l 0.0087,-0.287 z m 4.125637,0.18263 c 0.03558,-0.0575 0.03184,-0.15735 -0.0083,-0.22213 l -0.07299,-0.11776 -0.09295,0.16561 -0.09295,0.16562 -0.154234,-0.0591 -0.15423,-0.0591 v -0.31497 -0.31498 l 0.322413,0.0643 0.322412,0.0644 -0.04277,-0.12951 c -0.02353,-0.0713 -0.147655,-0.14489 -0.27584,-0.16364 l -0.233063,-0.0342 -0.151241,0.12515 -0.15124,0.12516 v 0.33512 c 0,0.1843 0.0314,0.36642 0.06978,0.40467 0.108273,0.10797 0.642862,0.0819 0.715226,-0.0348 z m 1.536891,-0.15979 c 0.01821,-0.14528 0.08022,-0.27444 0.137787,-0.28701 l 0.104666,-0.0229 0.03312,0.287 c 0.01822,0.15785 0.07709,0.28701 0.130835,0.28701 h 0.09771 l -0.0016,-0.23483 c -8.37e-4,-0.12915 -0.03621,-0.28797 -0.0785,-0.35291 l -0.0769,-0.11808 -0.287835,6.7e-4 -0.287836,6.7e-4 v 0.35224 0.35224 h 0.09772 c 0.05374,0 0.112619,-0.11888 0.130834,-0.26416 z m 1.03986,-0.075 c 0.0068,-0.18655 0.0038,-0.402 -0.0067,-0.4788 l -0.0191,-0.1396 0.216031,0.0683 0.216034,0.0685 v -0.1114 -0.11139 H 45.54207 45.233269 l -0.08868,0.15799 -0.08868,0.15802 0.0426,0.36382 0.0426,0.36382 h 0.14555 0.14555 z m 0.406268,-0.0261 v -0.36528 h -0.104667 -0.104668 v 0.36528 0.36528 h 0.104668 0.104667 z M 1.6812494,119.80778 c 0,-0.0575 -0.047103,-0.10435 -0.1046676,-0.10435 -0.057566,0 -0.1046666,0.047 -0.1046666,0.10435 0,0.0575 0.047103,0.10437 0.1046666,0.10437 0.057566,0 0.1046676,-0.047 0.1046676,-0.10437 z m 8.5827196,0 c 0,-0.0575 -0.0471,-0.10435 -0.104667,-0.10435 -0.05757,0 -0.104667,0.047 -0.104667,0.10435 0,0.0575 0.0471,0.10437 0.104667,0.10437 0.05757,0 0.104667,-0.047 0.104667,-0.10437 z"
       id="path838"
       inkscape:connector-curvature="0" />
    <rect
       style="opacity:1;fill:url(#linearGradient6353);fill-opacity:1;fill-rule:nonzero;stroke:#b3b291;stroke-width:0.2616334;stroke-miterlimit:4;stroke-dasharray:none;stroke-opacity:0"
       id="rect844-6"
       width="0.93026358"
       height="2.9240928"
       x="25.865143"
       y="139.87915"
       inkscape:transform-center-x="0.025529114"
       inkscape:transform-center-y="-0.032051863" />
    <rect
       style="opacity:1;fill:url(#linearGradient6337);fill-opacity:1;fill-rule:nonzero;stroke:#b3b291;stroke-width:0.2616334;stroke-miterlimit:4;stroke-dasharray:none;stroke-opacity:0"
       id="rect844-97"
       width="0.93026358"
       height="2.9240928"
       x="23.872219"
       y="139.87915"
       inkscape:transform-center-x="0.025529114"
       inkscape:transform-center-y="-0.032051863" />
    <rect
       style="opacity:1;fill:url(#linearGradient6321);fill-opacity:1;fill-rule:nonzero;stroke:#b3b291;stroke-width:0.2616334;stroke-miterlimit:4;stroke-dasharray:none;stroke-opacity:0"
       id="rect844-9"
       width="0.93026358"
       height="2.9240928"
       x="21.950048"
       y="139.87915"
       inkscape:transform-center-x="0.025529114"
       inkscape:transform-center-y="-0.032051863" />
    <rect
       style="opacity:1;fill:url(#linearGradient6305);fill-opacity:1;fill-rule:nonzero;stroke:#b3b291;stroke-width:0.2616334;stroke-miterlimit:4;stroke-dasharray:none;stroke-opacity:0"
       id="rect844-0"
       width="0.93026358"
       height="2.9240928"
       x="19.898163"
       y="139.87915"
       inkscape:transform-center-x="0.025529114"
       inkscape:transform-center-y="-0.032051863" />
    <rect
       style="opacity:1;fill:url(#linearGradient6217);fill-opacity:1;fill-rule:nonzero;stroke:#b3b291;stroke-width:0.2616334;stroke-miterlimit:4;stroke-dasharray:none;stroke-opacity:0"
       id="rect844"
       width="0.93026358"
       height="2.9240928"
       x="17.917418"
       y="139.87915"
       inkscape:transform-center-x="0.025529114"
       inkscape:transform-center-y="-0.032051863" />
    <rect
       style="opacity:1;fill:url(#linearGradient6289);fill-opacity:1;fill-rule:nonzero;stroke:#b3b291;stroke-width:0.2616334;stroke-miterlimit:4;stroke-dasharray:none;stroke-opacity:0"
       id="rect844-8"
       width="0.93026358"
       height="2.9240928"
       x="15.983071"
       y="139.87915"
       inkscape:transform-center-x="0.025529114"
       inkscape:transform-center-y="-0.032051863" />
    <rect
       style="opacity:1;fill:url(#linearGradient6353-7);fill-opacity:1;fill-rule:nonzero;stroke:#b3b291;stroke-width:0.2616334;stroke-miterlimit:4;stroke-dasharray:none;stroke-opacity:0"
       id="rect844-6-4"
       width="0.93026358"
       height="2.9240928"
       x="27.881655"
       y="139.87915"
       inkscape:transform-center-x="0.025529114"
       inkscape:transform-center-y="-0.032051863" />
    <rect
       style="opacity:1;fill:url(#linearGradient6353-4);fill-opacity:1;fill-rule:nonzero;stroke:#b3b291;stroke-width:0.2616334;stroke-miterlimit:4;stroke-dasharray:none;stroke-opacity:0"
       id="rect844-6-0"
       width="0.93026358"
       height="2.9240928"
       x="29.90288"
       y="139.87915"
       inkscape:transform-center-x="0.025529114"
       inkscape:transform-center-y="-0.032051863" />
  </g>
</svg>
